STARTFONT 2.1
FONT -Adobe-New Century Schoolbook-Medium-I-Normal--8-80-75-75-P-50-ISO10646-1
SIZE 8 75 75
FONTBOUNDINGBOX 14 16 -2 -4
COMMENT $Xorg: $
COMMENT ISO10646-1 extension by Markus Kuhn <mkuhn@acm.org>, 2001-03-20
COMMENT 
COMMENT +
COMMENT  Copyright 1984-1989, 1994 Adobe Systems Incorporated.
COMMENT  Copyright 1988, 1994 Digital Equipment Corporation.
COMMENT
COMMENT  Adobe is a trademark of Adobe Systems Incorporated which may be
COMMENT  registered in certain jurisdictions.
COMMENT  Permission to use these trademarks is hereby granted only in
COMMENT  association with the images described in this file.
COMMENT
COMMENT  Permission to use, copy, modify, distribute and sell this software
COMMENT  and its documentation for any purpose and without fee is hereby
COMMENT  granted, provided that the above copyright notices appear in all
COMMENT  copies and that both those copyright notices and this permission
COMMENT  notice appear in supporting documentation, and that the names of
COMMENT  Adobe Systems and Digital Equipment Corporation not be used in
COMMENT  advertising or publicity pertaining to distribution of the software
COMMENT  without specific, written prior permission.  Adobe Systems and
COMMENT  Digital Equipment Corporation make no representations about the
COMMENT  suitability of this software for any purpose.  It is provided "as
COMMENT  is" without express or implied warranty.
COMMENT -
STARTPROPERTIES 26
FOUNDRY "Adobe"
FAMILY_NAME "New Century Schoolbook"
WEIGHT_NAME "Medium"
SLANT "I"
SETWIDTH_NAME "Normal"
ADD_STYLE_NAME ""
PIXEL_SIZE 8
POINT_SIZE 80
RESOLUTION_X 75
RESOLUTION_Y 75
SPACING "P"
AVERAGE_WIDTH 50
CHARSET_REGISTRY "ISO10646"
CHARSET_ENCODING "1"
CAP_HEIGHT 6
X_HEIGHT 4
FONT_ASCENT 7
FONT_DESCENT 2
FACE_NAME "New Century Schoolbook Italic"
COPYRIGHT "Copyright (c) 1984, 1987 Adobe Systems Incorporated. All Rights Reserved. Copyright (c) 1988, 1991 Digital Equipment Corporation. All Rights Reserved."

STARTCHAR char0
ENCODING 0
SWIDTH 833 0
DWIDTH 7 0
BBX 5 5 0 0
BITMAP
A8
00
88
00
A8
ENDCHAR
STARTCHAR space
ENCODING 32
SWIDTH 278 0
DWIDTH 2 0
BBX 1 1 0 0
BITMAP
00
ENDCHAR
STARTCHAR exclam
ENCODING 33
SWIDTH 333 0
DWIDTH 3 0
BBX 3 6 0 0
BITMAP
20
20
40
40
00
80
ENDCHAR
STARTCHAR quotedbl
ENCODING 34
SWIDTH 400 0
DWIDTH 5 0
BBX 3 2 1 4
BITMAP
A0
A0
ENDCHAR
STARTCHAR numbersign
ENCODING 35
SWIDTH 606 0
DWIDTH 6 0
BBX 6 5 0 1
BITMAP
28
FC
50
F8
A0
ENDCHAR
STARTCHAR dollar
ENCODING 36
SWIDTH 556 0
DWIDTH 4 0
BBX 4 8 0 -1
BITMAP
20
20
70
E0
20
C0
40
40
ENDCHAR
STARTCHAR percent
ENCODING 37
SWIDTH 833 0
DWIDTH 7 0
BBX 6 6 0 0
BITMAP
7C
A8
D0
2C
54
98
ENDCHAR
STARTCHAR ampersand
ENCODING 38
SWIDTH 852 0
DWIDTH 7 0
BBX 6 6 0 0
BITMAP
38
28
70
94
98
6C
ENDCHAR
STARTCHAR quotesingle
ENCODING 39
SWIDTH 278 0
DWIDTH 4 0
BBX 1 3 1 5
BITMAP
80
80
80
ENDCHAR
STARTCHAR parenleft
ENCODING 40
SWIDTH 333 0
DWIDTH 4 0
BBX 3 8 0 -2
BITMAP
20
40
40
80
80
80
40
40
ENDCHAR
STARTCHAR parenright
ENCODING 41
SWIDTH 333 0
DWIDTH 4 0
BBX 3 8 0 -2
BITMAP
40
40
20
20
20
40
40
80
ENDCHAR
STARTCHAR asterisk
ENCODING 42
SWIDTH 500 0
DWIDTH 5 0
BBX 4 3 0 3
BITMAP
B0
60
B0
ENDCHAR
STARTCHAR plus
ENCODING 43
SWIDTH 606 0
DWIDTH 5 0
BBX 4 5 0 0
BITMAP
20
20
F0
20
20
ENDCHAR
STARTCHAR comma
ENCODING 44
SWIDTH 278 0
DWIDTH 2 0
BBX 2 2 -1 -1
BITMAP
40
80
ENDCHAR
STARTCHAR hyphen
ENCODING 45
SWIDTH 333 0
DWIDTH 3 0
BBX 3 1 0 2
BITMAP
E0
ENDCHAR
STARTCHAR period
ENCODING 46
SWIDTH 278 0
DWIDTH 2 0
BBX 1 1 0 0
BITMAP
80
ENDCHAR
STARTCHAR slash
ENCODING 47
SWIDTH 606 0
DWIDTH 4 0
BBX 3 7 0 -1
BITMAP
20
20
40
40
80
80
80
ENDCHAR
STARTCHAR zero
ENCODING 48
SWIDTH 556 0
DWIDTH 4 0
BBX 3 6 0 0
BITMAP
60
A0
A0
A0
A0
C0
ENDCHAR
STARTCHAR one
ENCODING 49
SWIDTH 556 0
DWIDTH 4 0
BBX 3 6 0 0
BITMAP
60
20
20
40
40
E0
ENDCHAR
STARTCHAR two
ENCODING 50
SWIDTH 556 0
DWIDTH 4 0
BBX 3 6 0 0
BITMAP
60
A0
20
40
A0
E0
ENDCHAR
STARTCHAR three
ENCODING 51
SWIDTH 556 0
DWIDTH 4 0
BBX 3 6 0 0
BITMAP
60
A0
40
20
A0
C0
ENDCHAR
STARTCHAR four
ENCODING 52
SWIDTH 556 0
DWIDTH 4 0
BBX 3 6 0 0
BITMAP
20
60
A0
E0
40
E0
ENDCHAR
STARTCHAR five
ENCODING 53
SWIDTH 556 0
DWIDTH 4 0
BBX 4 6 0 0
BITMAP
70
40
E0
20
A0
C0
ENDCHAR
STARTCHAR six
ENCODING 54
SWIDTH 556 0
DWIDTH 4 0
BBX 3 6 0 0
BITMAP
20
40
80
E0
A0
C0
ENDCHAR
STARTCHAR seven
ENCODING 55
SWIDTH 556 0
DWIDTH 4 0
BBX 3 6 0 0
BITMAP
E0
20
20
40
40
40
ENDCHAR
STARTCHAR eight
ENCODING 56
SWIDTH 556 0
DWIDTH 4 0
BBX 3 6 0 0
BITMAP
60
A0
40
A0
A0
C0
ENDCHAR
STARTCHAR nine
ENCODING 57
SWIDTH 556 0
DWIDTH 4 0
BBX 3 6 0 0
BITMAP
60
A0
A0
E0
20
C0
ENDCHAR
STARTCHAR colon
ENCODING 58
SWIDTH 278 0
DWIDTH 2 0
BBX 2 4 0 0
BITMAP
40
00
00
80
ENDCHAR
STARTCHAR semicolon
ENCODING 59
SWIDTH 278 0
DWIDTH 2 0
BBX 3 6 -1 -2
BITMAP
20
00
00
40
40
80
ENDCHAR
STARTCHAR less
ENCODING 60
SWIDTH 606 0
DWIDTH 6 0
BBX 4 5 1 0
BITMAP
10
60
80
40
20
ENDCHAR
STARTCHAR equal
ENCODING 61
SWIDTH 606 0
DWIDTH 5 0
BBX 4 3 0 1
BITMAP
F0
00
F0
ENDCHAR
STARTCHAR greater
ENCODING 62
SWIDTH 606 0
DWIDTH 6 0
BBX 4 5 0 0
BITMAP
40
20
10
60
80
ENDCHAR
STARTCHAR question
ENCODING 63
SWIDTH 444 0
DWIDTH 5 0
BBX 3 6 1 0
BITMAP
C0
20
20
40
00
80
ENDCHAR
STARTCHAR at
ENCODING 64
SWIDTH 747 0
DWIDTH 7 0
BBX 6 7 0 0
BITMAP
30
48
B8
A8
BC
80
70
ENDCHAR
STARTCHAR A
ENCODING 65
SWIDTH 704 0
DWIDTH 6 0
BBX 6 6 -1 0
BITMAP
08
18
24
3C
44
EC
ENDCHAR
STARTCHAR B
ENCODING 66
SWIDTH 722 0
DWIDTH 6 0
BBX 5 6 0 0
BITMAP
78
28
30
48
48
F0
ENDCHAR
STARTCHAR C
ENCODING 67
SWIDTH 722 0
DWIDTH 5 0
BBX 5 6 0 0
BITMAP
38
48
80
80
90
60
ENDCHAR
STARTCHAR D
ENCODING 68
SWIDTH 778 0
DWIDTH 6 0
BBX 6 6 0 0
BITMAP
78
24
24
44
48
F0
ENDCHAR
STARTCHAR E
ENCODING 69
SWIDTH 722 0
DWIDTH 6 0
BBX 6 6 0 0
BITMAP
7C
24
30
40
48
F8
ENDCHAR
STARTCHAR F
ENCODING 70
SWIDTH 667 0
DWIDTH 6 0
BBX 6 6 0 0
BITMAP
7C
24
30
40
40
E0
ENDCHAR
STARTCHAR G
ENCODING 71
SWIDTH 778 0
DWIDTH 6 0
BBX 6 6 0 0
BITMAP
3C
44
80
9C
88
78
ENDCHAR
STARTCHAR H
ENCODING 72
SWIDTH 833 0
DWIDTH 7 0
BBX 6 6 0 0
BITMAP
6C
24
3C
48
48
DC
ENDCHAR
STARTCHAR I
ENCODING 73
SWIDTH 407 0
DWIDTH 4 0
BBX 4 6 0 0
BITMAP
70
20
20
40
40
E0
ENDCHAR
STARTCHAR J
ENCODING 74
SWIDTH 611 0
DWIDTH 4 0
BBX 5 6 -1 0
BITMAP
38
10
10
10
A0
60
ENDCHAR
STARTCHAR K
ENCODING 75
SWIDTH 741 0
DWIDTH 6 0
BBX 6 6 0 0
BITMAP
64
28
30
60
50
D8
ENDCHAR
STARTCHAR L
ENCODING 76
SWIDTH 667 0
DWIDTH 6 0
BBX 5 6 0 0
BITMAP
70
20
20
40
48
F8
ENDCHAR
STARTCHAR M
ENCODING 77
SWIDTH 944 0
DWIDTH 10 0
BBX 9 6 0 0
BITMAP
6380
2300
2500
5A00
5A00
D300
ENDCHAR
STARTCHAR N
ENCODING 78
SWIDTH 815 0
DWIDTH 7 0
BBX 7 6 0 0
BITMAP
66
24
34
58
48
E8
ENDCHAR
STARTCHAR O
ENCODING 79
SWIDTH 778 0
DWIDTH 6 0
BBX 5 6 0 0
BITMAP
30
48
88
88
90
60
ENDCHAR
STARTCHAR P
ENCODING 80
SWIDTH 667 0
DWIDTH 6 0
BBX 6 6 0 0
BITMAP
78
24
28
70
40
E0
ENDCHAR
STARTCHAR Q
ENCODING 81
SWIDTH 778 0
DWIDTH 6 0
BBX 5 7 0 -1
BITMAP
30
48
88
B8
D0
68
30
ENDCHAR
STARTCHAR R
ENCODING 82
SWIDTH 741 0
DWIDTH 6 0
BBX 6 6 0 0
BITMAP
78
24
38
50
48
EC
ENDCHAR
STARTCHAR S
ENCODING 83
SWIDTH 667 0
DWIDTH 6 0
BBX 5 6 1 0
BITMAP
38
40
60
30
90
E0
ENDCHAR
STARTCHAR T
ENCODING 84
SWIDTH 685 0
DWIDTH 6 0
BBX 5 6 1 0
BITMAP
F8
A8
20
40
40
E0
ENDCHAR
STARTCHAR U
ENCODING 85
SWIDTH 815 0
DWIDTH 6 0
BBX 6 6 0 0
BITMAP
EC
48
48
90
90
60
ENDCHAR
STARTCHAR V
ENCODING 86
SWIDTH 704 0
DWIDTH 6 0
BBX 6 6 0 0
BITMAP
EC
48
48
30
20
20
ENDCHAR
STARTCHAR W
ENCODING 87
SWIDTH 926 0
DWIDTH 9 0
BBX 9 6 0 0
BITMAP
ED80
4900
5A00
3600
2400
2400
ENDCHAR
STARTCHAR X
ENCODING 88
SWIDTH 704 0
DWIDTH 6 0
BBX 6 6 0 0
BITMAP
64
38
10
30
48
CC
ENDCHAR
STARTCHAR Y
ENCODING 89
SWIDTH 685 0
DWIDTH 6 0
BBX 6 6 0 0
BITMAP
CC
48
30
20
20
60
ENDCHAR
STARTCHAR Z
ENCODING 90
SWIDTH 667 0
DWIDTH 6 0
BBX 6 6 0 0
BITMAP
7C
48
10
20
48
F8
ENDCHAR
STARTCHAR bracketleft
ENCODING 91
SWIDTH 333 0
DWIDTH 4 0
BBX 4 7 0 -1
BITMAP
30
20
20
40
40
80
C0
ENDCHAR
STARTCHAR backslash
ENCODING 92
SWIDTH 606 0
DWIDTH 4 0
BBX 3 6 0 0
BITMAP
80
80
40
40
20
20
ENDCHAR
STARTCHAR bracketright
ENCODING 93
SWIDTH 333 0
DWIDTH 4 0
BBX 4 7 -1 -1
BITMAP
30
10
20
20
40
40
C0
ENDCHAR
STARTCHAR asciicircum
ENCODING 94
SWIDTH 606 0
DWIDTH 5 0
BBX 4 3 0 3
BITMAP
20
50
90
ENDCHAR
STARTCHAR underscore
ENCODING 95
SWIDTH 500 0
DWIDTH 4 0
BBX 4 1 0 -1
BITMAP
F0
ENDCHAR
STARTCHAR grave
ENCODING 96
SWIDTH 333 0
DWIDTH 3 0
BBX 2 2 0 6
BITMAP
80
40
ENDCHAR
STARTCHAR a
ENCODING 97
SWIDTH 574 0
DWIDTH 5 0
BBX 4 4 0 0
BITMAP
60
70
A0
70
ENDCHAR
STARTCHAR b
ENCODING 98
SWIDTH 556 0
DWIDTH 5 0
BBX 4 6 0 0
BITMAP
60
20
70
50
50
E0
ENDCHAR
STARTCHAR c
ENCODING 99
SWIDTH 444 0
DWIDTH 4 0
BBX 4 4 0 0
BITMAP
70
C0
80
60
ENDCHAR
STARTCHAR d
ENCODING 100
SWIDTH 611 0
DWIDTH 5 0
BBX 5 6 0 0
BITMAP
18
10
70
A0
A0
70
ENDCHAR
STARTCHAR e
ENCODING 101
SWIDTH 444 0
DWIDTH 4 0
BBX 3 4 0 0
BITMAP
60
E0
80
60
ENDCHAR
STARTCHAR f
ENCODING 102
SWIDTH 333 0
DWIDTH 3 0
BBX 4 8 0 -2
BITMAP
30
20
F0
40
40
80
80
80
ENDCHAR
STARTCHAR g
ENCODING 103
SWIDTH 537 0
DWIDTH 4 0
BBX 5 7 -1 -2
BITMAP
08
30
50
60
70
90
60
ENDCHAR
STARTCHAR h
ENCODING 104
SWIDTH 611 0
DWIDTH 5 0
BBX 4 6 0 0
BITMAP
C0
40
70
50
A0
B0
ENDCHAR
STARTCHAR i
ENCODING 105
SWIDTH 333 0
DWIDTH 2 0
BBX 3 6 0 0
BITMAP
20
00
C0
40
80
80
ENDCHAR
STARTCHAR j
ENCODING 106
SWIDTH 315 0
DWIDTH 2 0
BBX 4 8 -2 -2
BITMAP
10
00
30
10
20
20
20
C0
ENDCHAR
STARTCHAR k
ENCODING 107
SWIDTH 556 0
DWIDTH 5 0
BBX 4 6 0 0
BITMAP
C0
40
70
C0
A0
B0
ENDCHAR
STARTCHAR l
ENCODING 108
SWIDTH 333 0
DWIDTH 2 0
BBX 2 6 0 0
BITMAP
C0
40
40
80
80
80
ENDCHAR
STARTCHAR m
ENCODING 109
SWIDTH 889 0
DWIDTH 7 0
BBX 6 4 0 0
BITMAP
AC
74
A8
AC
ENDCHAR
STARTCHAR n
ENCODING 110
SWIDTH 611 0
DWIDTH 5 0
BBX 4 4 0 0
BITMAP
F0
50
A0
B0
ENDCHAR
STARTCHAR o
ENCODING 111
SWIDTH 500 0
DWIDTH 5 0
BBX 4 4 0 0
BITMAP
70
90
90
E0
ENDCHAR
STARTCHAR p
ENCODING 112
SWIDTH 574 0
DWIDTH 5 0
BBX 5 6 -1 -2
BITMAP
70
28
28
70
40
C0
ENDCHAR
STARTCHAR q
ENCODING 113
SWIDTH 556 0
DWIDTH 5 0
BBX 4 6 0 -2
BITMAP
70
A0
A0
60
40
E0
ENDCHAR
STARTCHAR r
ENCODING 114
SWIDTH 444 0
DWIDTH 4 0
BBX 4 4 0 0
BITMAP
F0
40
80
80
ENDCHAR
STARTCHAR s
ENCODING 115
SWIDTH 444 0
DWIDTH 3 0
BBX 3 4 0 0
BITMAP
60
C0
20
C0
ENDCHAR
STARTCHAR t
ENCODING 116
SWIDTH 352 0
DWIDTH 2 0
BBX 3 6 0 0
BITMAP
40
40
E0
80
80
C0
ENDCHAR
STARTCHAR u
ENCODING 117
SWIDTH 611 0
DWIDTH 5 0
BBX 4 4 0 0
BITMAP
D0
50
B0
D0
ENDCHAR
STARTCHAR v
ENCODING 118
SWIDTH 519 0
DWIDTH 5 0
BBX 4 4 0 0
BITMAP
D0
90
A0
40
ENDCHAR
STARTCHAR w
ENCODING 119
SWIDTH 778 0
DWIDTH 7 0
BBX 6 4 0 0
BITMAP
D4
94
A8
70
ENDCHAR
STARTCHAR x
ENCODING 120
SWIDTH 500 0
DWIDTH 5 0
BBX 6 4 -1 0
BITMAP
6C
30
20
D8
ENDCHAR
STARTCHAR y
ENCODING 121
SWIDTH 500 0
DWIDTH 5 0
BBX 5 6 -1 -2
BITMAP
68
48
30
20
20
C0
ENDCHAR
STARTCHAR z
ENCODING 122
SWIDTH 463 0
DWIDTH 5 0
BBX 4 4 0 0
BITMAP
70
20
50
E0
ENDCHAR
STARTCHAR braceleft
ENCODING 123
SWIDTH 333 0
DWIDTH 4 0
BBX 4 7 0 -1
BITMAP
10
20
40
C0
40
40
20
ENDCHAR
STARTCHAR bar
ENCODING 124
SWIDTH 606 0
DWIDTH 5 0
BBX 1 6 2 0
BITMAP
80
80
80
80
80
80
ENDCHAR
STARTCHAR braceright
ENCODING 125
SWIDTH 333 0
DWIDTH 4 0
BBX 4 7 -1 -1
BITMAP
40
20
20
30
20
40
80
ENDCHAR
STARTCHAR asciitilde
ENCODING 126
SWIDTH 606 0
DWIDTH 6 0
BBX 5 2 0 2
BITMAP
68
B0
ENDCHAR
STARTCHAR space
ENCODING 160
SWIDTH 278 0
DWIDTH 2 0
BBX 1 1 0 0
BITMAP
00
ENDCHAR
STARTCHAR exclamdown
ENCODING 161
SWIDTH 333 0
DWIDTH 3 0
BBX 3 7 0 -2
BITMAP
20
20
00
40
40
80
80
ENDCHAR
STARTCHAR cent
ENCODING 162
SWIDTH 556 0
DWIDTH 4 0
BBX 4 6 0 -1
BITMAP
20
70
C0
80
E0
80
ENDCHAR
STARTCHAR sterling
ENCODING 163
SWIDTH 556 0
DWIDTH 5 0
BBX 4 6 0 0
BITMAP
30
40
F0
40
50
A0
ENDCHAR
STARTCHAR currency
ENCODING 164
SWIDTH 606 0
DWIDTH 6 0
BBX 4 5 1 1
BITMAP
90
F0
90
F0
90
ENDCHAR
STARTCHAR yen
ENCODING 165
SWIDTH 556 0
DWIDTH 6 0
BBX 6 7 0 -1
BITMAP
CC
48
FC
50
F8
40
C0
ENDCHAR
STARTCHAR brokenbar
ENCODING 166
SWIDTH 606 0
DWIDTH 5 0
BBX 1 6 2 0
BITMAP
80
80
00
00
80
80
ENDCHAR
STARTCHAR section
ENCODING 167
SWIDTH 500 0
DWIDTH 5 0
BBX 4 8 0 -2
BITMAP
70
90
C0
A0
50
20
A0
C0
ENDCHAR
STARTCHAR dieresis
ENCODING 168
SWIDTH 333 0
DWIDTH 3 0
BBX 3 1 0 5
BITMAP
A0
ENDCHAR
STARTCHAR copyright
ENCODING 169
SWIDTH 747 0
DWIDTH 7 0
BBX 7 7 0 0
BITMAP
38
44
BA
A2
BA
44
38
ENDCHAR
STARTCHAR ordfeminine
ENCODING 170
SWIDTH 422 0
DWIDTH 4 0
BBX 3 5 0 1
BITMAP
E0
60
A0
00
E0
ENDCHAR
STARTCHAR guillemotleft
ENCODING 171
SWIDTH 426 0
DWIDTH 5 0
BBX 5 4 0 0
BITMAP
28
50
A0
50
ENDCHAR
STARTCHAR logicalnot
ENCODING 172
SWIDTH 606 0
DWIDTH 5 0
BBX 4 2 0 1
BITMAP
F0
10
ENDCHAR
STARTCHAR hyphen
ENCODING 173
SWIDTH 333 0
DWIDTH 3 0
BBX 3 1 0 2
BITMAP
E0
ENDCHAR
STARTCHAR registered
ENCODING 174
SWIDTH 747 0
DWIDTH 7 0
BBX 7 7 0 0
BITMAP
38
44
BA
BA
AA
64
38
ENDCHAR
STARTCHAR macron
ENCODING 175
SWIDTH 333 0
DWIDTH 3 0
BBX 3 1 0 5
BITMAP
E0
ENDCHAR
STARTCHAR degree
ENCODING 176
SWIDTH 400 0
DWIDTH 3 0
BBX 3 3 1 4
BITMAP
40
A0
C0
ENDCHAR
STARTCHAR plusminus
ENCODING 177
SWIDTH 606 0
DWIDTH 5 0
BBX 4 4 0 0
BITMAP
20
F0
00
F0
ENDCHAR
STARTCHAR twosuperior
ENCODING 178
SWIDTH 333 0
DWIDTH 2 0
BBX 3 4 0 2
BITMAP
E0
20
40
E0
ENDCHAR
STARTCHAR threesuperior
ENCODING 179
SWIDTH 333 0
DWIDTH 2 0
BBX 3 4 0 2
BITMAP
E0
40
20
C0
ENDCHAR
STARTCHAR acute
ENCODING 180
SWIDTH 333 0
DWIDTH 2 0
BBX 2 2 0 5
BITMAP
40
80
ENDCHAR
STARTCHAR mu
ENCODING 181
SWIDTH 611 0
DWIDTH 5 0
BBX 5 5 -1 -1
BITMAP
68
48
50
78
80
ENDCHAR
STARTCHAR paragraph
ENCODING 182
SWIDTH 650 0
DWIDTH 6 0
BBX 6 7 0 -1
BITMAP
7C
E8
E8
50
50
50
D0
ENDCHAR
STARTCHAR periodcentered
ENCODING 183
SWIDTH 278 0
DWIDTH 2 0
BBX 1 1 0 2
BITMAP
80
ENDCHAR
STARTCHAR cedilla
ENCODING 184
SWIDTH 333 0
DWIDTH 3 0
BBX 2 2 0 -1
BITMAP
40
80
ENDCHAR
STARTCHAR onesuperior
ENCODING 185
SWIDTH 333 0
DWIDTH 2 0
BBX 2 4 0 2
BITMAP
40
40
80
80
ENDCHAR
STARTCHAR ordmasculine
ENCODING 186
SWIDTH 372 0
DWIDTH 3 0
BBX 3 5 0 1
BITMAP
60
A0
C0
00
E0
ENDCHAR
STARTCHAR guillemotright
ENCODING 187
SWIDTH 426 0
DWIDTH 5 0
BBX 5 4 0 0
BITMAP
50
28
50
A0
ENDCHAR
STARTCHAR onequarter
ENCODING 188
SWIDTH 834 0
DWIDTH 6 0
BBX 5 8 0 -1
BITMAP
40
48
90
A0
58
A8
78
10
ENDCHAR
STARTCHAR onehalf
ENCODING 189
SWIDTH 834 0
DWIDTH 6 0
BBX 6 8 0 -1
BITMAP
24
28
50
50
2C
54
88
1C
ENDCHAR
STARTCHAR threequarters
ENCODING 190
SWIDTH 834 0
DWIDTH 6 0
BBX 7 8 0 -1
BITMAP
E2
44
28
D0
2C
54
BC
08
ENDCHAR
STARTCHAR questiondown
ENCODING 191
SWIDTH 444 0
DWIDTH 5 0
BBX 3 6 0 -1
BITMAP
20
00
20
40
80
E0
ENDCHAR
STARTCHAR Agrave
ENCODING 192
SWIDTH 704 0
DWIDTH 6 0
BBX 6 8 -1 0
BITMAP
10
08
08
18
24
3C
44
EC
ENDCHAR
STARTCHAR Aacute
ENCODING 193
SWIDTH 704 0
DWIDTH 6 0
BBX 6 8 -1 0
BITMAP
04
08
08
18
24
3C
44
EC
ENDCHAR
STARTCHAR Acircumflex
ENCODING 194
SWIDTH 704 0
DWIDTH 6 0
BBX 6 8 -1 0
BITMAP
08
14
00
18
24
3C
44
EC
ENDCHAR
STARTCHAR Atilde
ENCODING 195
SWIDTH 704 0
DWIDTH 6 0
BBX 7 8 -1 0
BITMAP
0A
14
08
18
24
3C
44
EC
ENDCHAR
STARTCHAR Adieresis
ENCODING 196
SWIDTH 704 0
DWIDTH 6 0
BBX 6 8 -1 0
BITMAP
14
00
08
18
24
3C
44
EC
ENDCHAR
STARTCHAR Aring
ENCODING 197
SWIDTH 704 0
DWIDTH 6 0
BBX 6 8 -1 0
BITMAP
08
14
08
18
24
3C
44
EC
ENDCHAR
STARTCHAR AE
ENCODING 198
SWIDTH 870 0
DWIDTH 8 0
BBX 9 6 -1 0
BITMAP
1F80
0C80
1600
3C00
4900
DF00
ENDCHAR
STARTCHAR Ccedilla
ENCODING 199
SWIDTH 722 0
DWIDTH 5 0
BBX 5 8 0 -2
BITMAP
38
48
80
80
90
60
20
40
ENDCHAR
STARTCHAR Egrave
ENCODING 200
SWIDTH 722 0
DWIDTH 6 0
BBX 6 8 0 0
BITMAP
20
10
7C
24
30
40
48
F8
ENDCHAR
STARTCHAR Eacute
ENCODING 201
SWIDTH 722 0
DWIDTH 6 0
BBX 6 8 0 0
BITMAP
08
10
7C
24
30
40
48
F8
ENDCHAR
STARTCHAR Ecircumflex
ENCODING 202
SWIDTH 722 0
DWIDTH 6 0
BBX 6 8 0 0
BITMAP
10
28
7C
24
30
40
48
F8
ENDCHAR
STARTCHAR Edieresis
ENCODING 203
SWIDTH 722 0
DWIDTH 6 0
BBX 6 8 0 0
BITMAP
28
00
7C
24
30
40
48
F8
ENDCHAR
STARTCHAR Igrave
ENCODING 204
SWIDTH 407 0
DWIDTH 4 0
BBX 4 8 0 0
BITMAP
40
20
70
20
20
40
40
E0
ENDCHAR
STARTCHAR Iacute
ENCODING 205
SWIDTH 407 0
DWIDTH 4 0
BBX 4 8 0 0
BITMAP
10
20
70
20
20
40
40
E0
ENDCHAR
STARTCHAR Icircumflex
ENCODING 206
SWIDTH 407 0
DWIDTH 4 0
BBX 4 8 0 0
BITMAP
20
50
70
20
20
40
40
E0
ENDCHAR
STARTCHAR Idieresis
ENCODING 207
SWIDTH 407 0
DWIDTH 4 0
BBX 4 8 0 0
BITMAP
50
00
70
20
20
40
40
E0
ENDCHAR
STARTCHAR Eth
ENCODING 208
SWIDTH 778 0
DWIDTH 6 0
BBX 6 6 0 0
BITMAP
78
24
E4
4C
48
F0
ENDCHAR
STARTCHAR Ntilde
ENCODING 209
SWIDTH 815 0
DWIDTH 7 0
BBX 6 8 0 0
BITMAP
14
28
64
24
34
58
48
E8
ENDCHAR
STARTCHAR Ograve
ENCODING 210
SWIDTH 778 0
DWIDTH 6 0
BBX 5 8 0 0
BITMAP
20
10
30
48
88
88
90
60
ENDCHAR
STARTCHAR Oacute
ENCODING 211
SWIDTH 778 0
DWIDTH 6 0
BBX 5 8 0 0
BITMAP
08
10
30
48
88
88
90
60
ENDCHAR
STARTCHAR Ocircumflex
ENCODING 212
SWIDTH 778 0
DWIDTH 6 0
BBX 5 8 0 0
BITMAP
10
28
30
48
88
88
90
60
ENDCHAR
STARTCHAR Otilde
ENCODING 213
SWIDTH 778 0
DWIDTH 6 0
BBX 6 8 0 0
BITMAP
14
28
30
48
88
88
90
60
ENDCHAR
STARTCHAR Odieresis
ENCODING 214
SWIDTH 778 0
DWIDTH 6 0
BBX 5 8 0 0
BITMAP
28
00
30
48
88
88
90
60
ENDCHAR
STARTCHAR multiply
ENCODING 215
SWIDTH 606 0
DWIDTH 5 0
BBX 4 4 0 0
BITMAP
90
60
60
90
ENDCHAR
STARTCHAR Oslash
ENCODING 216
SWIDTH 778 0
DWIDTH 6 0
BBX 7 8 -1 -1
BITMAP
02
1C
2C
54
54
68
70
80
ENDCHAR
STARTCHAR Ugrave
ENCODING 217
SWIDTH 815 0
DWIDTH 6 0
BBX 6 8 0 0
BITMAP
20
10
EC
48
48
90
90
60
ENDCHAR
STARTCHAR Uacute
ENCODING 218
SWIDTH 815 0
DWIDTH 6 0
BBX 6 8 0 0
BITMAP
08
10
EC
48
48
90
90
60
ENDCHAR
STARTCHAR Ucircumflex
ENCODING 219
SWIDTH 815 0
DWIDTH 6 0
BBX 6 8 0 0
BITMAP
10
28
EC
48
48
90
90
60
ENDCHAR
STARTCHAR Udieresis
ENCODING 220
SWIDTH 815 0
DWIDTH 6 0
BBX 6 8 0 0
BITMAP
28
00
EC
48
48
90
90
60
ENDCHAR
STARTCHAR Yacute
ENCODING 221
SWIDTH 685 0
DWIDTH 6 0
BBX 6 8 0 0
BITMAP
08
10
CC
48
30
20
20
60
ENDCHAR
STARTCHAR Thorn
ENCODING 222
SWIDTH 667 0
DWIDTH 6 0
BBX 6 6 0 0
BITMAP
60
38
24
44
78
C0
ENDCHAR
STARTCHAR germandbls
ENCODING 223
SWIDTH 556 0
DWIDTH 6 0
BBX 5 6 0 0
BITMAP
18
28
30
48
48
B0
ENDCHAR
STARTCHAR agrave
ENCODING 224
SWIDTH 574 0
DWIDTH 5 0
BBX 4 7 0 0
BITMAP
40
20
00
60
70
A0
70
ENDCHAR
STARTCHAR aacute
ENCODING 225
SWIDTH 574 0
DWIDTH 5 0
BBX 4 7 0 0
BITMAP
10
20
00
60
70
A0
70
ENDCHAR
STARTCHAR acircumflex
ENCODING 226
SWIDTH 574 0
DWIDTH 5 0
BBX 4 7 0 0
BITMAP
20
50
00
60
70
A0
70
ENDCHAR
STARTCHAR atilde
ENCODING 227
SWIDTH 574 0
DWIDTH 5 0
BBX 5 7 0 0
BITMAP
28
50
00
60
70
A0
70
ENDCHAR
STARTCHAR adieresis
ENCODING 228
SWIDTH 574 0
DWIDTH 5 0
BBX 4 6 0 0
BITMAP
50
00
60
70
A0
70
ENDCHAR
STARTCHAR aring
ENCODING 229
SWIDTH 574 0
DWIDTH 5 0
BBX 4 7 0 0
BITMAP
20
50
20
60
70
A0
70
ENDCHAR
STARTCHAR ae
ENCODING 230
SWIDTH 722 0
DWIDTH 6 0
BBX 6 4 0 0
BITMAP
6C
7C
A0
F8
ENDCHAR
STARTCHAR ccedilla
ENCODING 231
SWIDTH 444 0
DWIDTH 4 0
BBX 4 9 0 -2
BITMAP
10
20
00
70
C0
80
60
40
80
ENDCHAR
STARTCHAR egrave
ENCODING 232
SWIDTH 444 0
DWIDTH 4 0
BBX 3 7 0 0
BITMAP
40
20
00
60
E0
80
60
ENDCHAR
STARTCHAR eacute
ENCODING 233
SWIDTH 444 0
DWIDTH 4 0
BBX 4 7 0 0
BITMAP
10
20
00
60
E0
80
60
ENDCHAR
STARTCHAR ecircumflex
ENCODING 234
SWIDTH 444 0
DWIDTH 4 0
BBX 4 7 0 0
BITMAP
20
50
00
60
E0
80
60
ENDCHAR
STARTCHAR edieresis
ENCODING 235
SWIDTH 444 0
DWIDTH 4 0
BBX 4 6 0 0
BITMAP
50
00
60
E0
80
60
ENDCHAR
STARTCHAR igrave
ENCODING 236
SWIDTH 333 0
DWIDTH 2 0
BBX 2 7 0 0
BITMAP
80
40
00
C0
40
80
80
ENDCHAR
STARTCHAR iacute
ENCODING 237
SWIDTH 333 0
DWIDTH 2 0
BBX 3 7 0 0
BITMAP
20
40
00
C0
40
80
80
ENDCHAR
STARTCHAR icircumflex
ENCODING 238
SWIDTH 333 0
DWIDTH 2 0
BBX 3 7 0 0
BITMAP
40
A0
00
C0
40
80
80
ENDCHAR
STARTCHAR idieresis
ENCODING 239
SWIDTH 333 0
DWIDTH 2 0
BBX 3 6 0 0
BITMAP
A0
00
C0
40
80
80
ENDCHAR
STARTCHAR eth
ENCODING 240
SWIDTH 500 0
DWIDTH 5 0
BBX 4 7 0 0
BITMAP
90
60
A0
70
90
90
60
ENDCHAR
STARTCHAR ntilde
ENCODING 241
SWIDTH 611 0
DWIDTH 5 0
BBX 5 7 0 0
BITMAP
28
50
00
F0
50
A0
B0
ENDCHAR
STARTCHAR ograve
ENCODING 242
SWIDTH 500 0
DWIDTH 5 0
BBX 4 7 0 0
BITMAP
40
20
00
70
90
90
E0
ENDCHAR
STARTCHAR oacute
ENCODING 243
SWIDTH 500 0
DWIDTH 5 0
BBX 4 7 0 0
BITMAP
10
20
00
70
90
90
E0
ENDCHAR
STARTCHAR ocircumflex
ENCODING 244
SWIDTH 500 0
DWIDTH 5 0
BBX 4 7 0 0
BITMAP
20
50
00
70
90
90
E0
ENDCHAR
STARTCHAR otilde
ENCODING 245
SWIDTH 500 0
DWIDTH 5 0
BBX 5 7 0 0
BITMAP
28
50
00
70
90
90
E0
ENDCHAR
STARTCHAR odieresis
ENCODING 246
SWIDTH 500 0
DWIDTH 5 0
BBX 4 6 0 0
BITMAP
50
00
70
90
90
E0
ENDCHAR
STARTCHAR divide
ENCODING 247
SWIDTH 606 0
DWIDTH 5 0
BBX 4 5 0 0
BITMAP
20
00
F0
00
20
ENDCHAR
STARTCHAR oslash
ENCODING 248
SWIDTH 500 0
DWIDTH 5 0
BBX 6 6 -1 -1
BITMAP
04
38
48
48
70
80
ENDCHAR
STARTCHAR ugrave
ENCODING 249
SWIDTH 611 0
DWIDTH 5 0
BBX 4 7 0 0
BITMAP
40
20
00
D0
50
B0
D0
ENDCHAR
STARTCHAR uacute
ENCODING 250
SWIDTH 611 0
DWIDTH 5 0
BBX 4 7 0 0
BITMAP
10
20
00
D0
50
B0
D0
ENDCHAR
STARTCHAR ucircumflex
ENCODING 251
SWIDTH 611 0
DWIDTH 5 0
BBX 4 7 0 0
BITMAP
20
50
00
D0
50
B0
D0
ENDCHAR
STARTCHAR udieresis
ENCODING 252
SWIDTH 611 0
DWIDTH 5 0
BBX 4 6 0 0
BITMAP
50
00
D0
50
B0
D0
ENDCHAR
STARTCHAR yacute
ENCODING 253
SWIDTH 500 0
DWIDTH 5 0
BBX 5 9 -1 -2
BITMAP
08
10
00
68
48
30
20
20
C0
ENDCHAR
STARTCHAR thorn
ENCODING 254
SWIDTH 574 0
DWIDTH 5 0
BBX 5 8 -1 -2
BITMAP
60
20
38
28
48
70
80
C0
ENDCHAR
STARTCHAR ydieresis
ENCODING 255
SWIDTH 500 0
DWIDTH 5 0
BBX 5 8 -1 -2
BITMAP
28
00
68
48
30
20
20
C0
ENDCHAR
STARTCHAR Amacron
ENCODING 256
SWIDTH 704 0
DWIDTH 6 0
BBX 6 8 -1 0
BITMAP
38
00
08
18
24
3C
44
EC
ENDCHAR
STARTCHAR amacron
ENCODING 257
SWIDTH 574 0
DWIDTH 5 0
BBX 4 6 0 0
BITMAP
70
00
60
70
A0
70
ENDCHAR
STARTCHAR Abreve
ENCODING 258
SWIDTH 704 0
DWIDTH 6 0
BBX 6 9 -1 0
BITMAP
24
18
00
08
18
24
3C
44
EC
ENDCHAR
STARTCHAR abreve
ENCODING 259
SWIDTH 574 0
DWIDTH 5 0
BBX 4 7 0 0
BITMAP
90
60
00
60
70
A0
70
ENDCHAR
STARTCHAR Aogonek
ENCODING 260
SWIDTH 704 0
DWIDTH 6 0
BBX 6 8 -1 -2
BITMAP
08
18
24
3C
44
FC
20
30
ENDCHAR
STARTCHAR aogonek
ENCODING 261
SWIDTH 574 0
DWIDTH 5 0
BBX 4 6 0 -2
BITMAP
60
70
A0
70
40
60
ENDCHAR
STARTCHAR Cacute
ENCODING 262
SWIDTH 722 0
DWIDTH 5 0
BBX 5 9 0 0
BITMAP
10
20
00
38
48
80
80
90
60
ENDCHAR
STARTCHAR cacute
ENCODING 263
SWIDTH 444 0
DWIDTH 4 0
BBX 4 7 0 0
BITMAP
20
40
00
70
C0
80
60
ENDCHAR
STARTCHAR Ccircumflex
ENCODING 264
SWIDTH 722 0
DWIDTH 5 0
BBX 5 9 0 0
BITMAP
10
28
00
38
48
80
80
90
60
ENDCHAR
STARTCHAR ccircumflex
ENCODING 265
SWIDTH 444 0
DWIDTH 4 0
BBX 4 7 0 0
BITMAP
40
A0
00
70
C0
80
60
ENDCHAR
STARTCHAR Cdotaccent
ENCODING 266
SWIDTH 722 0
DWIDTH 5 0
BBX 5 8 0 0
BITMAP
10
00
38
48
80
80
90
60
ENDCHAR
STARTCHAR cdotaccent
ENCODING 267
SWIDTH 444 0
DWIDTH 4 0
BBX 4 6 0 0
BITMAP
40
00
70
C0
80
60
ENDCHAR
STARTCHAR Ccaron
ENCODING 268
SWIDTH 722 0
DWIDTH 5 0
BBX 5 9 0 0
BITMAP
28
10
00
38
48
80
80
90
60
ENDCHAR
STARTCHAR ccaron
ENCODING 269
SWIDTH 444 0
DWIDTH 4 0
BBX 4 7 0 0
BITMAP
A0
40
00
70
C0
80
60
ENDCHAR
STARTCHAR Dcaron
ENCODING 270
SWIDTH 778 0
DWIDTH 6 0
BBX 6 9 0 0
BITMAP
28
10
00
78
24
24
44
48
F0
ENDCHAR
STARTCHAR dcaron
ENCODING 271
SWIDTH 784 0
DWIDTH 7 0
BBX 7 7 0 0
BITMAP
02
1A
14
70
A0
A0
70
ENDCHAR
STARTCHAR Dcroat
ENCODING 272
SWIDTH 778 0
DWIDTH 6 0
BBX 6 6 0 0
BITMAP
78
24
E4
4C
48
F0
ENDCHAR
STARTCHAR dcroat
ENCODING 273
SWIDTH 611 0
DWIDTH 5 0
BBX 5 6 0 0
BITMAP
18
78
70
A0
A0
70
ENDCHAR
STARTCHAR Emacron
ENCODING 274
SWIDTH 722 0
DWIDTH 6 0
BBX 6 8 0 0
BITMAP
38
00
7C
24
30
40
48
F8
ENDCHAR
STARTCHAR emacron
ENCODING 275
SWIDTH 444 0
DWIDTH 4 0
BBX 3 6 0 0
BITMAP
E0
00
60
E0
80
60
ENDCHAR
STARTCHAR Ebreve
ENCODING 276
SWIDTH 722 0
DWIDTH 6 0
BBX 6 9 0 0
BITMAP
48
30
00
7C
24
30
40
48
F8
ENDCHAR
STARTCHAR ebreve
ENCODING 277
SWIDTH 444 0
DWIDTH 4 0
BBX 4 7 0 0
BITMAP
90
60
00
60
E0
80
60
ENDCHAR
STARTCHAR Edotaccent
ENCODING 278
SWIDTH 722 0
DWIDTH 6 0
BBX 6 8 0 0
BITMAP
10
00
7C
24
30
40
48
F8
ENDCHAR
STARTCHAR edotaccent
ENCODING 279
SWIDTH 444 0
DWIDTH 4 0
BBX 3 6 0 0
BITMAP
40
00
60
E0
80
60
ENDCHAR
STARTCHAR Eogonek
ENCODING 280
SWIDTH 722 0
DWIDTH 6 0
BBX 6 8 0 -2
BITMAP
7C
24
30
40
48
F8
40
60
ENDCHAR
STARTCHAR eogonek
ENCODING 281
SWIDTH 444 0
DWIDTH 4 0
BBX 3 6 0 -2
BITMAP
60
E0
80
60
80
C0
ENDCHAR
STARTCHAR Ecaron
ENCODING 282
SWIDTH 722 0
DWIDTH 6 0
BBX 6 9 0 0
BITMAP
28
10
00
7C
24
30
40
48
F8
ENDCHAR
STARTCHAR ecaron
ENCODING 283
SWIDTH 444 0
DWIDTH 4 0
BBX 3 7 0 0
BITMAP
A0
40
00
60
E0
80
60
ENDCHAR
STARTCHAR Gcircumflex
ENCODING 284
SWIDTH 778 0
DWIDTH 6 0
BBX 6 9 0 0
BITMAP
10
28
00
3C
44
80
9C
88
78
ENDCHAR
STARTCHAR gcircumflex
ENCODING 285
SWIDTH 537 0
DWIDTH 4 0
BBX 5 10 -1 -2
BITMAP
10
28
00
08
30
50
60
70
90
60
ENDCHAR
STARTCHAR Gbreve
ENCODING 286
SWIDTH 778 0
DWIDTH 6 0
BBX 6 9 0 0
BITMAP
24
18
00
3C
44
80
9C
88
78
ENDCHAR
STARTCHAR gbreve
ENCODING 287
SWIDTH 537 0
DWIDTH 4 0
BBX 5 10 -1 -2
BITMAP
48
30
00
08
30
50
60
70
90
60
ENDCHAR
STARTCHAR Gdotaccent
ENCODING 288
SWIDTH 778 0
DWIDTH 6 0
BBX 6 8 0 0
BITMAP
10
00
3C
44
80
9C
88
78
ENDCHAR
STARTCHAR gdotaccent
ENCODING 289
SWIDTH 537 0
DWIDTH 4 0
BBX 5 9 -1 -2
BITMAP
10
00
08
30
50
60
70
90
60
ENDCHAR
STARTCHAR Gcommaaccent
ENCODING 290
SWIDTH 778 0
DWIDTH 6 0
BBX 6 9 0 -3
BITMAP
3C
44
80
9C
88
78
00
10
20
ENDCHAR
STARTCHAR gcommaaccent
ENCODING 291
SWIDTH 537 0
DWIDTH 4 0
BBX 5 11 -1 -2
BITMAP
10
20
30
00
08
30
50
60
70
90
60
ENDCHAR
STARTCHAR Hcircumflex
ENCODING 292
SWIDTH 833 0
DWIDTH 7 0
BBX 6 9 0 0
BITMAP
10
28
00
6C
24
3C
48
48
DC
ENDCHAR
STARTCHAR hcircumflex
ENCODING 293
SWIDTH 611 0
DWIDTH 5 0
BBX 4 9 0 0
BITMAP
40
A0
00
C0
40
70
50
A0
B0
ENDCHAR
STARTCHAR Hbar
ENCODING 294
SWIDTH 833 0
DWIDTH 7 0
BBX 6 6 0 0
BITMAP
6C
FC
3C
48
48
DC
ENDCHAR
STARTCHAR hbar
ENCODING 295
SWIDTH 611 0
DWIDTH 5 0
BBX 5 6 -1 0
BITMAP
60
F0
38
28
50
58
ENDCHAR
STARTCHAR Itilde
ENCODING 296
SWIDTH 407 0
DWIDTH 4 0
BBX 5 9 0 0
BITMAP
48
B0
00
70
20
20
40
40
E0
ENDCHAR
STARTCHAR itilde
ENCODING 297
SWIDTH 333 0
DWIDTH 3 0
BBX 5 8 -1 0
BITMAP
48
B0
00
60
20
20
40
60
ENDCHAR
STARTCHAR Imacron
ENCODING 298
SWIDTH 407 0
DWIDTH 4 0
BBX 4 8 0 0
BITMAP
70
00
70
20
20
40
40
E0
ENDCHAR
STARTCHAR imacron
ENCODING 299
SWIDTH 333 0
DWIDTH 3 0
BBX 3 7 0 0
BITMAP
E0
00
C0
40
40
80
C0
ENDCHAR
STARTCHAR Ibreve
ENCODING 300
SWIDTH 407 0
DWIDTH 4 0
BBX 4 9 0 0
BITMAP
90
60
00
70
20
20
40
40
E0
ENDCHAR
STARTCHAR ibreve
ENCODING 301
SWIDTH 333 0
DWIDTH 3 0
BBX 4 8 -1 0
BITMAP
90
60
00
60
20
20
40
60
ENDCHAR
STARTCHAR Iogonek
ENCODING 302
SWIDTH 407 0
DWIDTH 4 0
BBX 4 8 0 -2
BITMAP
70
20
20
40
40
E0
80
C0
ENDCHAR
STARTCHAR iogonek
ENCODING 303
SWIDTH 333 0
DWIDTH 2 0
BBX 3 8 0 -2
BITMAP
20
00
C0
40
80
C0
80
C0
ENDCHAR
STARTCHAR Idotaccent
ENCODING 304
SWIDTH 407 0
DWIDTH 4 0
BBX 4 8 0 0
BITMAP
20
00
70
20
20
40
40
E0
ENDCHAR
STARTCHAR dotlessi
ENCODING 305
SWIDTH 333 0
DWIDTH 3 0
BBX 2 5 0 0
BITMAP
C0
40
40
80
C0
ENDCHAR
STARTCHAR IJ
ENCODING 306
SWIDTH 998 0
DWIDTH 8 0
BBX 8 6 0 0
BITMAP
77
22
22
42
54
EC
ENDCHAR
STARTCHAR ij
ENCODING 307
SWIDTH 631 0
DWIDTH 4 0
BBX 4 8 0 -2
BITMAP
30
00
F0
50
A0
A0
20
C0
ENDCHAR
STARTCHAR Jcircumflex
ENCODING 308
SWIDTH 611 0
DWIDTH 4 0
BBX 5 9 -1 0
BITMAP
10
28
00
38
10
10
10
A0
60
ENDCHAR
STARTCHAR jcircumflex
ENCODING 309
SWIDTH 315 0
DWIDTH 2 0
BBX 4 9 -2 -2
BITMAP
20
50
00
30
10
20
20
20
C0
ENDCHAR
STARTCHAR Kcommaaccent
ENCODING 310
SWIDTH 741 0
DWIDTH 6 0
BBX 6 9 0 -3
BITMAP
64
28
30
60
50
D8
00
20
40
ENDCHAR
STARTCHAR kcommaaccent
ENCODING 311
SWIDTH 556 0
DWIDTH 5 0
BBX 4 9 0 -3
BITMAP
C0
40
70
C0
A0
B0
00
20
40
ENDCHAR
STARTCHAR kgreenlandic
ENCODING 312
SWIDTH 556 0
DWIDTH 5 0
BBX 4 4 0 0
BITMAP
70
C0
A0
B0
ENDCHAR
STARTCHAR Lacute
ENCODING 313
SWIDTH 667 0
DWIDTH 6 0
BBX 5 9 0 0
BITMAP
10
20
00
70
20
20
40
48
F8
ENDCHAR
STARTCHAR lacute
ENCODING 314
SWIDTH 333 0
DWIDTH 2 0
BBX 2 9 0 0
BITMAP
40
80
00
C0
40
40
80
80
80
ENDCHAR
STARTCHAR Lcommaaccent
ENCODING 315
SWIDTH 667 0
DWIDTH 6 0
BBX 5 9 0 -3
BITMAP
70
20
20
40
48
F8
00
20
40
ENDCHAR
STARTCHAR lcommaaccent
ENCODING 316
SWIDTH 333 0
DWIDTH 2 0
BBX 3 9 -1 -3
BITMAP
60
20
20
40
40
40
00
40
80
ENDCHAR
STARTCHAR Lcaron
ENCODING 317
SWIDTH 838 0
DWIDTH 8 0
BBX 8 7 0 0
BITMAP
01
71
22
20
40
48
F8
ENDCHAR
STARTCHAR lcaron
ENCODING 318
SWIDTH 520 0
DWIDTH 4 0
BBX 4 7 0 0
BITMAP
10
D0
60
40
80
80
80
ENDCHAR
STARTCHAR Ldot
ENCODING 319
SWIDTH 912 0
DWIDTH 8 0
BBX 7 6 0 0
BITMAP
70
20
20
42
48
F8
ENDCHAR
STARTCHAR ldot
ENCODING 320
SWIDTH 594 0
DWIDTH 4 0
BBX 3 6 0 0
BITMAP
C0
40
40
A0
80
80
ENDCHAR
STARTCHAR Lslash
ENCODING 321
SWIDTH 667 0
DWIDTH 7 0
BBX 6 8 0 0
BITMAP
70
20
20
30
C0
40
44
FC
ENDCHAR
STARTCHAR lslash
ENCODING 322
SWIDTH 333 0
DWIDTH 3 0
BBX 3 8 0 0
BITMAP
60
20
40
E0
40
80
80
C0
ENDCHAR
STARTCHAR Nacute
ENCODING 323
SWIDTH 815 0
DWIDTH 7 0
BBX 7 9 0 0
BITMAP
08
10
00
66
24
34
58
48
E8
ENDCHAR
STARTCHAR nacute
ENCODING 324
SWIDTH 611 0
DWIDTH 5 0
BBX 4 7 0 0
BITMAP
20
40
00
F0
50
A0
B0
ENDCHAR
STARTCHAR Ncommaaccent
ENCODING 325
SWIDTH 815 0
DWIDTH 7 0
BBX 7 9 0 -3
BITMAP
66
24
34
58
48
E8
00
10
20
ENDCHAR
STARTCHAR ncommaaccent
ENCODING 326
SWIDTH 611 0
DWIDTH 5 0
BBX 4 7 0 -3
BITMAP
F0
50
A0
B0
00
20
40
ENDCHAR
STARTCHAR Ncaron
ENCODING 327
SWIDTH 815 0
DWIDTH 7 0
BBX 7 9 0 0
BITMAP
28
10
00
66
24
34
58
48
E8
ENDCHAR
STARTCHAR ncaron
ENCODING 328
SWIDTH 611 0
DWIDTH 5 0
BBX 4 7 0 0
BITMAP
50
20
00
F0
50
A0
B0
ENDCHAR
STARTCHAR napostrophe
ENCODING 329
SWIDTH 805 0
DWIDTH 7 0
BBX 6 7 0 0
BITMAP
40
40
80
3C
14
28
2C
ENDCHAR
STARTCHAR Eng
ENCODING 330
SWIDTH 815 0
DWIDTH 7 0
BBX 7 8 0 -2
BITMAP
66
24
34
58
48
E8
08
30
ENDCHAR
STARTCHAR eng
ENCODING 331
SWIDTH 611 0
DWIDTH 5 0
BBX 4 6 0 -2
BITMAP
F0
50
A0
A0
20
C0
ENDCHAR
STARTCHAR Omacron
ENCODING 332
SWIDTH 778 0
DWIDTH 6 0
BBX 5 8 0 0
BITMAP
70
00
30
48
88
88
90
60
ENDCHAR
STARTCHAR omacron
ENCODING 333
SWIDTH 500 0
DWIDTH 5 0
BBX 4 6 0 0
BITMAP
70
00
70
90
90
E0
ENDCHAR
STARTCHAR Obreve
ENCODING 334
SWIDTH 778 0
DWIDTH 6 0
BBX 5 9 0 0
BITMAP
48
30
00
30
48
88
88
90
60
ENDCHAR
STARTCHAR obreve
ENCODING 335
SWIDTH 500 0
DWIDTH 5 0
BBX 4 7 0 0
BITMAP
90
60
00
70
90
90
E0
ENDCHAR
STARTCHAR Ohungarumlaut
ENCODING 336
SWIDTH 778 0
DWIDTH 6 0
BBX 6 9 0 0
BITMAP
24
48
00
30
48
88
88
90
60
ENDCHAR
STARTCHAR ohungarumlaut
ENCODING 337
SWIDTH 500 0
DWIDTH 5 0
BBX 5 7 0 0
BITMAP
48
90
00
70
90
90
E0
ENDCHAR
STARTCHAR OE
ENCODING 338
SWIDTH 981 0
DWIDTH 10 0
BBX 10 8 0 0
BITMAP
3FC0
4440
4500
8700
8900
8800
8880
7F80
ENDCHAR
STARTCHAR oe
ENCODING 339
SWIDTH 778 0
DWIDTH 8 0
BBX 7 5 0 0
BITMAP
36
4A
8C
92
6C
ENDCHAR
STARTCHAR Racute
ENCODING 340
SWIDTH 741 0
DWIDTH 6 0
BBX 6 9 0 0
BITMAP
08
10
00
78
24
38
50
48
EC
ENDCHAR
STARTCHAR racute
ENCODING 341
SWIDTH 444 0
DWIDTH 4 0
BBX 4 7 0 0
BITMAP
20
40
00
F0
40
80
80
ENDCHAR
STARTCHAR Rcommaaccent
ENCODING 342
SWIDTH 741 0
DWIDTH 6 0
BBX 6 9 0 -3
BITMAP
78
24
38
50
48
EC
00
10
20
ENDCHAR
STARTCHAR rcommaaccent
ENCODING 343
SWIDTH 444 0
DWIDTH 4 0
BBX 4 7 0 -3
BITMAP
F0
40
80
80
00
40
80
ENDCHAR
STARTCHAR Rcaron
ENCODING 344
SWIDTH 741 0
DWIDTH 6 0
BBX 6 9 0 0
BITMAP
28
10
00
78
24
38
50
48
EC
ENDCHAR
STARTCHAR rcaron
ENCODING 345
SWIDTH 444 0
DWIDTH 4 0
BBX 4 7 0 0
BITMAP
A0
40
00
F0
40
80
80
ENDCHAR
STARTCHAR Sacute
ENCODING 346
SWIDTH 667 0
DWIDTH 6 0
BBX 5 9 1 0
BITMAP
10
20
00
38
40
60
30
90
E0
ENDCHAR
STARTCHAR sacute
ENCODING 347
SWIDTH 444 0
DWIDTH 3 0
BBX 3 7 0 0
BITMAP
20
40
00
60
C0
20
C0
ENDCHAR
STARTCHAR Scircumflex
ENCODING 348
SWIDTH 667 0
DWIDTH 6 0
BBX 5 9 1 0
BITMAP
20
50
00
38
40
60
30
90
E0
ENDCHAR
STARTCHAR scircumflex
ENCODING 349
SWIDTH 444 0
DWIDTH 3 0
BBX 3 7 0 0
BITMAP
40
A0
00
60
C0
20
C0
ENDCHAR
STARTCHAR Scedilla
ENCODING 350
SWIDTH 667 0
DWIDTH 6 0
BBX 5 7 1 -1
BITMAP
38
40
60
30
90
E0
40
ENDCHAR
STARTCHAR scedilla
ENCODING 351
SWIDTH 444 0
DWIDTH 3 0
BBX 3 5 0 -1
BITMAP
60
C0
20
C0
80
ENDCHAR
STARTCHAR Scaron
ENCODING 352
SWIDTH 667 0
DWIDTH 7 0
BBX 6 8 0 0
BITMAP
28
10
3C
44
20
10
88
F0
ENDCHAR
STARTCHAR scaron
ENCODING 353
SWIDTH 444 0
DWIDTH 4 0
BBX 4 8 0 0
BITMAP
50
20
00
70
80
E0
20
C0
ENDCHAR
STARTCHAR Tcommaaccent
ENCODING 354
SWIDTH 685 0
DWIDTH 6 0
BBX 5 7 1 -1
BITMAP
F8
A8
20
40
40
E0
40
ENDCHAR
STARTCHAR tcommaaccent
ENCODING 355
SWIDTH 352 0
DWIDTH 2 0
BBX 3 7 0 -1
BITMAP
40
40
E0
80
80
C0
80
ENDCHAR
STARTCHAR Tcaron
ENCODING 356
SWIDTH 685 0
DWIDTH 6 0
BBX 5 9 1 0
BITMAP
50
20
00
F8
A8
20
40
40
E0
ENDCHAR
STARTCHAR tcaron
ENCODING 357
SWIDTH 538 0
DWIDTH 4 0
BBX 4 7 0 0
BITMAP
10
50
60
E0
80
80
C0
ENDCHAR
STARTCHAR Tbar
ENCODING 358
SWIDTH 685 0
DWIDTH 6 0
BBX 5 6 1 0
BITMAP
F8
A8
78
40
40
E0
ENDCHAR
STARTCHAR tbar
ENCODING 359
SWIDTH 352 0
DWIDTH 2 0
BBX 4 6 0 0
BITMAP
40
40
E0
F0
80
C0
ENDCHAR
STARTCHAR Utilde
ENCODING 360
SWIDTH 815 0
DWIDTH 6 0
BBX 6 9 0 0
BITMAP
24
58
00
EC
48
48
90
90
60
ENDCHAR
STARTCHAR utilde
ENCODING 361
SWIDTH 611 0
DWIDTH 5 0
BBX 5 7 0 0
BITMAP
48
B0
00
D0
50
B0
D0
ENDCHAR
STARTCHAR Umacron
ENCODING 362
SWIDTH 815 0
DWIDTH 6 0
BBX 6 8 0 0
BITMAP
70
00
EC
48
48
90
90
60
ENDCHAR
STARTCHAR umacron
ENCODING 363
SWIDTH 611 0
DWIDTH 5 0
BBX 4 6 0 0
BITMAP
70
00
D0
50
B0
D0
ENDCHAR
STARTCHAR Ubreve
ENCODING 364
SWIDTH 815 0
DWIDTH 6 0
BBX 6 9 0 0
BITMAP
48
30
00
EC
48
48
90
90
60
ENDCHAR
STARTCHAR ubreve
ENCODING 365
SWIDTH 611 0
DWIDTH 5 0
BBX 4 7 0 0
BITMAP
90
60
00
D0
50
B0
D0
ENDCHAR
STARTCHAR Uring
ENCODING 366
SWIDTH 815 0
DWIDTH 6 0
BBX 6 10 0 0
BITMAP
30
48
30
00
EC
48
48
90
90
60
ENDCHAR
STARTCHAR uring
ENCODING 367
SWIDTH 611 0
DWIDTH 5 0
BBX 4 8 0 0
BITMAP
60
90
60
00
D0
50
B0
D0
ENDCHAR
STARTCHAR Uhungarumlaut
ENCODING 368
SWIDTH 815 0
DWIDTH 6 0
BBX 6 9 0 0
BITMAP
24
48
00
EC
48
48
90
90
60
ENDCHAR
STARTCHAR uhungarumlaut
ENCODING 369
SWIDTH 611 0
DWIDTH 5 0
BBX 5 7 0 0
BITMAP
48
90
00
D0
50
B0
D0
ENDCHAR
STARTCHAR Uogonek
ENCODING 370
SWIDTH 815 0
DWIDTH 6 0
BBX 6 8 0 -2
BITMAP
EC
48
48
90
90
60
40
60
ENDCHAR
STARTCHAR uogonek
ENCODING 371
SWIDTH 611 0
DWIDTH 5 0
BBX 4 6 0 -2
BITMAP
D0
50
B0
F0
40
60
ENDCHAR
STARTCHAR Wcircumflex
ENCODING 372
SWIDTH 926 0
DWIDTH 9 0
BBX 9 9 0 0
BITMAP
0800
1400
0000
ED80
4900
5A00
3600
2400
2400
ENDCHAR
STARTCHAR wcircumflex
ENCODING 373
SWIDTH 778 0
DWIDTH 7 0
BBX 6 7 0 0
BITMAP
20
50
00
D4
94
A8
70
ENDCHAR
STARTCHAR Ycircumflex
ENCODING 374
SWIDTH 685 0
DWIDTH 6 0
BBX 6 9 0 0
BITMAP
10
28
00
CC
48
30
20
20
60
ENDCHAR
STARTCHAR ycircumflex
ENCODING 375
SWIDTH 500 0
DWIDTH 5 0
BBX 5 9 -1 -2
BITMAP
20
50
00
68
48
30
20
20
C0
ENDCHAR
STARTCHAR Ydieresis
ENCODING 376
SWIDTH 685 0
DWIDTH 8 0
BBX 7 8 0 0
BITMAP
28
00
EE
44
48
30
20
70
ENDCHAR
STARTCHAR Zacute
ENCODING 377
SWIDTH 667 0
DWIDTH 6 0
BBX 6 9 0 0
BITMAP
08
10
00
7C
48
10
20
48
F8
ENDCHAR
STARTCHAR zacute
ENCODING 378
SWIDTH 463 0
DWIDTH 5 0
BBX 4 7 0 0
BITMAP
10
20
00
70
20
50
E0
ENDCHAR
STARTCHAR Zdotaccent
ENCODING 379
SWIDTH 667 0
DWIDTH 6 0
BBX 6 8 0 0
BITMAP
10
00
7C
48
10
20
48
F8
ENDCHAR
STARTCHAR zdotaccent
ENCODING 380
SWIDTH 463 0
DWIDTH 5 0
BBX 4 6 0 0
BITMAP
20
00
70
20
50
E0
ENDCHAR
STARTCHAR Zcaron
ENCODING 381
SWIDTH 667 0
DWIDTH 8 0
BBX 7 8 0 0
BITMAP
28
10
7E
44
18
20
44
FC
ENDCHAR
STARTCHAR zcaron
ENCODING 382
SWIDTH 463 0
DWIDTH 6 0
BBX 5 8 0 0
BITMAP
50
20
00
78
50
20
48
B0
ENDCHAR
STARTCHAR uni0186
ENCODING 390
SWIDTH 722 0
DWIDTH 5 0
BBX 5 6 0 0
BITMAP
30
48
08
08
90
E0
ENDCHAR
STARTCHAR uni0189
ENCODING 393
SWIDTH 778 0
DWIDTH 6 0
BBX 6 6 0 0
BITMAP
78
24
E4
4C
48
F0
ENDCHAR
STARTCHAR uni018E
ENCODING 398
SWIDTH 722 0
DWIDTH 6 0
BBX 6 6 0 0
BITMAP
7C
48
08
30
90
F8
ENDCHAR
STARTCHAR florin
ENCODING 402
SWIDTH 556 0
DWIDTH 7 0
BBX 7 10 -1 -2
BITMAP
06
0A
08
3C
10
10
10
20
A0
C0
ENDCHAR
STARTCHAR uni0197
ENCODING 407
SWIDTH 407 0
DWIDTH 4 0
BBX 4 6 0 0
BITMAP
70
20
F0
40
40
E0
ENDCHAR
STARTCHAR uni019A
ENCODING 410
SWIDTH 333 0
DWIDTH 2 0
BBX 4 6 -1 0
BITMAP
60
20
F0
40
40
40
ENDCHAR
STARTCHAR uni019D
ENCODING 413
SWIDTH 815 0
DWIDTH 7 0
BBX 8 8 -1 -2
BITMAP
33
12
1A
2C
24
24
20
C0
ENDCHAR
STARTCHAR uni019F
ENCODING 415
SWIDTH 778 0
DWIDTH 6 0
BBX 5 6 0 0
BITMAP
30
48
F8
88
90
60
ENDCHAR
STARTCHAR Ohorn
ENCODING 416
SWIDTH 778 0
DWIDTH 6 0
BBX 7 6 0 0
BITMAP
32
4A
8C
88
90
60
ENDCHAR
STARTCHAR ohorn
ENCODING 417
SWIDTH 500 0
DWIDTH 5 0
BBX 6 4 0 0
BITMAP
74
94
98
E0
ENDCHAR
STARTCHAR Uhorn
ENCODING 431
SWIDTH 815 0
DWIDTH 6 0
BBX 8 6 0 0
BITMAP
ED
49
4A
90
90
60
ENDCHAR
STARTCHAR uhorn
ENCODING 432
SWIDTH 611 0
DWIDTH 5 0
BBX 6 4 0 0
BITMAP
D4
54
B8
D0
ENDCHAR
STARTCHAR uni01B5
ENCODING 437
SWIDTH 667 0
DWIDTH 6 0
BBX 6 6 0 0
BITMAP
7C
48
78
20
48
F8
ENDCHAR
STARTCHAR uni01B6
ENCODING 438
SWIDTH 463 0
DWIDTH 5 0
BBX 4 4 0 0
BITMAP
70
F0
50
E0
ENDCHAR
STARTCHAR uni01BB
ENCODING 443
SWIDTH 556 0
DWIDTH 4 0
BBX 3 6 0 0
BITMAP
60
A0
E0
40
A0
E0
ENDCHAR
STARTCHAR uni01BC
ENCODING 444
SWIDTH 556 0
DWIDTH 4 0
BBX 4 6 0 0
BITMAP
70
40
E0
20
A0
C0
ENDCHAR
STARTCHAR uni01C0
ENCODING 448
SWIDTH 606 0
DWIDTH 5 0
BBX 1 6 2 0
BITMAP
80
80
80
80
80
80
ENDCHAR
STARTCHAR uni01C2
ENCODING 450
SWIDTH 606 0
DWIDTH 5 0
BBX 4 6 0 0
BITMAP
20
20
F0
20
F0
20
ENDCHAR
STARTCHAR uni01C3
ENCODING 451
SWIDTH 333 0
DWIDTH 3 0
BBX 3 6 0 0
BITMAP
20
20
40
40
00
80
ENDCHAR
STARTCHAR uni01CD
ENCODING 461
SWIDTH 704 0
DWIDTH 6 0
BBX 6 9 -1 0
BITMAP
28
10
00
08
18
24
3C
44
EC
ENDCHAR
STARTCHAR uni01CE
ENCODING 462
SWIDTH 574 0
DWIDTH 5 0
BBX 4 7 0 0
BITMAP
50
20
00
60
70
A0
70
ENDCHAR
STARTCHAR uni01CF
ENCODING 463
SWIDTH 407 0
DWIDTH 4 0
BBX 4 9 0 0
BITMAP
50
20
00
70
20
20
40
40
E0
ENDCHAR
STARTCHAR uni01D0
ENCODING 464
SWIDTH 333 0
DWIDTH 3 0
BBX 3 8 0 0
BITMAP
A0
40
00
C0
40
40
80
C0
ENDCHAR
STARTCHAR uni01D1
ENCODING 465
SWIDTH 778 0
DWIDTH 6 0
BBX 5 9 0 0
BITMAP
50
20
00
30
48
88
88
90
60
ENDCHAR
STARTCHAR uni01D2
ENCODING 466
SWIDTH 500 0
DWIDTH 5 0
BBX 4 7 0 0
BITMAP
50
20
00
70
90
90
E0
ENDCHAR
STARTCHAR uni01D3
ENCODING 467
SWIDTH 815 0
DWIDTH 6 0
BBX 6 9 0 0
BITMAP
50
20
00
EC
48
48
90
90
60
ENDCHAR
STARTCHAR uni01D4
ENCODING 468
SWIDTH 611 0
DWIDTH 5 0
BBX 4 7 0 0
BITMAP
50
20
00
D0
50
B0
D0
ENDCHAR
STARTCHAR uni01D5
ENCODING 469
SWIDTH 815 0
DWIDTH 6 0
BBX 6 10 0 0
BITMAP
38
00
28
00
EC
48
48
90
90
60
ENDCHAR
STARTCHAR uni01D6
ENCODING 470
SWIDTH 611 0
DWIDTH 5 0
BBX 4 8 0 0
BITMAP
70
00
50
00
D0
50
B0
D0
ENDCHAR
STARTCHAR uni01D7
ENCODING 471
SWIDTH 815 0
DWIDTH 6 0
BBX 6 11 0 0
BITMAP
10
20
00
28
00
EC
48
48
90
90
60
ENDCHAR
STARTCHAR uni01D8
ENCODING 472
SWIDTH 611 0
DWIDTH 5 0
BBX 4 9 0 0
BITMAP
10
20
00
50
00
D0
50
B0
D0
ENDCHAR
STARTCHAR uni01D9
ENCODING 473
SWIDTH 815 0
DWIDTH 6 0
BBX 6 11 0 0
BITMAP
28
10
00
28
00
EC
48
48
90
90
60
ENDCHAR
STARTCHAR uni01DA
ENCODING 474
SWIDTH 611 0
DWIDTH 5 0
BBX 4 9 0 0
BITMAP
50
20
00
50
00
D0
50
B0
D0
ENDCHAR
STARTCHAR uni01DB
ENCODING 475
SWIDTH 815 0
DWIDTH 6 0
BBX 6 11 0 0
BITMAP
20
10
00
28
00
EC
48
48
90
90
60
ENDCHAR
STARTCHAR uni01DC
ENCODING 476
SWIDTH 611 0
DWIDTH 5 0
BBX 4 9 0 0
BITMAP
40
20
00
50
00
D0
50
B0
D0
ENDCHAR
STARTCHAR uni01DD
ENCODING 477
SWIDTH 444 0
DWIDTH 4 0
BBX 3 4 0 0
BITMAP
C0
20
E0
C0
ENDCHAR
STARTCHAR uni01DE
ENCODING 478
SWIDTH 704 0
DWIDTH 6 0
BBX 6 10 -1 0
BITMAP
1C
00
14
00
08
18
24
3C
44
EC
ENDCHAR
STARTCHAR uni01DF
ENCODING 479
SWIDTH 574 0
DWIDTH 5 0
BBX 4 8 0 0
BITMAP
70
00
50
00
60
70
A0
70
ENDCHAR
STARTCHAR uni01E0
ENCODING 480
SWIDTH 704 0
DWIDTH 6 0
BBX 6 10 -1 0
BITMAP
38
00
10
00
08
18
24
3C
44
EC
ENDCHAR
STARTCHAR uni01E1
ENCODING 481
SWIDTH 574 0
DWIDTH 5 0
BBX 4 8 0 0
BITMAP
70
00
20
00
60
70
A0
70
ENDCHAR
STARTCHAR uni01E2
ENCODING 482
SWIDTH 870 0
DWIDTH 8 0
BBX 9 8 -1 0
BITMAP
0E00
0000
1F80
0C80
1600
3C00
4900
DF00
ENDCHAR
STARTCHAR uni01E3
ENCODING 483
SWIDTH 722 0
DWIDTH 6 0
BBX 6 6 0 0
BITMAP
38
00
6C
7C
A0
F8
ENDCHAR
STARTCHAR uni01E4
ENCODING 484
SWIDTH 778 0
DWIDTH 6 0
BBX 6 6 0 0
BITMAP
3C
44
80
9C
BC
78
ENDCHAR
STARTCHAR uni01E5
ENCODING 485
SWIDTH 537 0
DWIDTH 4 0
BBX 5 7 -1 -2
BITMAP
08
30
50
60
70
F8
60
ENDCHAR
STARTCHAR Gcaron
ENCODING 486
SWIDTH 778 0
DWIDTH 6 0
BBX 6 9 0 0
BITMAP
28
10
00
3C
44
80
9C
88
78
ENDCHAR
STARTCHAR gcaron
ENCODING 487
SWIDTH 537 0
DWIDTH 4 0
BBX 5 10 -1 -2
BITMAP
28
10
00
08
30
50
60
70
90
60
ENDCHAR
STARTCHAR uni01E8
ENCODING 488
SWIDTH 741 0
DWIDTH 6 0
BBX 6 9 0 0
BITMAP
28
10
00
64
28
30
60
50
D8
ENDCHAR
STARTCHAR uni01E9
ENCODING 489
SWIDTH 556 0
DWIDTH 5 0
BBX 4 9 0 0
BITMAP
A0
40
00
C0
40
70
C0
A0
B0
ENDCHAR
STARTCHAR uni01EA
ENCODING 490
SWIDTH 778 0
DWIDTH 6 0
BBX 5 8 0 -2
BITMAP
30
48
88
88
90
60
40
60
ENDCHAR
STARTCHAR uni01EB
ENCODING 491
SWIDTH 500 0
DWIDTH 5 0
BBX 4 6 0 -2
BITMAP
70
90
90
E0
80
C0
ENDCHAR
STARTCHAR uni01EC
ENCODING 492
SWIDTH 778 0
DWIDTH 6 0
BBX 5 10 0 -2
BITMAP
70
00
30
48
88
88
90
60
40
60
ENDCHAR
STARTCHAR uni01ED
ENCODING 493
SWIDTH 500 0
DWIDTH 5 0
BBX 4 8 0 -2
BITMAP
70
00
70
90
90
E0
80
C0
ENDCHAR
STARTCHAR uni01F0
ENCODING 496
SWIDTH 315 0
DWIDTH 2 0
BBX 4 9 -2 -2
BITMAP
50
20
00
30
10
20
20
20
C0
ENDCHAR
STARTCHAR uni01F4
ENCODING 500
SWIDTH 778 0
DWIDTH 6 0
BBX 6 9 0 0
BITMAP
08
10
00
3C
44
80
9C
88
78
ENDCHAR
STARTCHAR uni01F5
ENCODING 501
SWIDTH 537 0
DWIDTH 4 0
BBX 5 10 -1 -2
BITMAP
08
10
00
08
30
50
60
70
90
60
ENDCHAR
STARTCHAR uni01F8
ENCODING 504
SWIDTH 815 0
DWIDTH 7 0
BBX 7 9 0 0
BITMAP
10
08
00
66
24
34
58
48
E8
ENDCHAR
STARTCHAR uni01F9
ENCODING 505
SWIDTH 611 0
DWIDTH 5 0
BBX 4 7 0 0
BITMAP
40
20
00
F0
50
A0
B0
ENDCHAR
STARTCHAR Aringacute
ENCODING 506
SWIDTH 704 0
DWIDTH 6 0
BBX 6 11 -1 0
BITMAP
08
10
00
08
14
08
18
24
3C
44
EC
ENDCHAR
STARTCHAR aringacute
ENCODING 507
SWIDTH 574 0
DWIDTH 5 0
BBX 4 10 0 0
BITMAP
10
20
00
20
50
20
60
70
A0
70
ENDCHAR
STARTCHAR AEacute
ENCODING 508
SWIDTH 870 0
DWIDTH 8 0
BBX 9 9 -1 0
BITMAP
0200
0400
0000
1F80
0C80
1600
3C00
4900
DF00
ENDCHAR
STARTCHAR aeacute
ENCODING 509
SWIDTH 722 0
DWIDTH 6 0
BBX 6 7 0 0
BITMAP
08
10
00
6C
7C
A0
F8
ENDCHAR
STARTCHAR Oslashacute
ENCODING 510
SWIDTH 778 0
DWIDTH 6 0
BBX 7 11 -1 -1
BITMAP
04
08
00
02
1C
2C
54
54
68
70
80
ENDCHAR
STARTCHAR oslashacute
ENCODING 511
SWIDTH 500 0
DWIDTH 5 0
BBX 6 9 -1 -1
BITMAP
08
10
00
04
38
48
48
70
80
ENDCHAR
STARTCHAR Scommaaccent
ENCODING 536
SWIDTH 667 0
DWIDTH 6 0
BBX 5 9 1 -3
BITMAP
38
40
60
30
90
E0
00
20
40
ENDCHAR
STARTCHAR scommaaccent
ENCODING 537
SWIDTH 444 0
DWIDTH 3 0
BBX 3 7 0 -3
BITMAP
60
C0
20
C0
00
40
80
ENDCHAR
STARTCHAR Tcommaaccent
ENCODING 538
SWIDTH 685 0
DWIDTH 6 0
BBX 5 9 1 -3
BITMAP
F8
A8
20
40
40
E0
00
20
40
ENDCHAR
STARTCHAR tcommaaccent
ENCODING 539
SWIDTH 352 0
DWIDTH 2 0
BBX 3 9 0 -3
BITMAP
40
40
E0
80
80
C0
00
40
80
ENDCHAR
STARTCHAR uni021E
ENCODING 542
SWIDTH 833 0
DWIDTH 7 0
BBX 6 9 0 0
BITMAP
28
10
00
6C
24
3C
48
48
DC
ENDCHAR
STARTCHAR uni021F
ENCODING 543
SWIDTH 611 0
DWIDTH 5 0
BBX 4 9 0 0
BITMAP
A0
40
00
C0
40
70
50
A0
B0
ENDCHAR
STARTCHAR uni0226
ENCODING 550
SWIDTH 704 0
DWIDTH 6 0
BBX 6 8 -1 0
BITMAP
10
00
08
18
24
3C
44
EC
ENDCHAR
STARTCHAR uni0227
ENCODING 551
SWIDTH 574 0
DWIDTH 5 0
BBX 4 6 0 0
BITMAP
20
00
60
70
A0
70
ENDCHAR
STARTCHAR uni0228
ENCODING 552
SWIDTH 722 0
DWIDTH 6 0
BBX 6 7 0 -1
BITMAP
7C
24
30
40
48
F8
40
ENDCHAR
STARTCHAR uni0229
ENCODING 553
SWIDTH 444 0
DWIDTH 4 0
BBX 3 5 0 -1
BITMAP
60
E0
80
60
80
ENDCHAR
STARTCHAR uni022A
ENCODING 554
SWIDTH 778 0
DWIDTH 6 0
BBX 5 10 0 0
BITMAP
38
00
28
00
30
48
88
88
90
60
ENDCHAR
STARTCHAR uni022B
ENCODING 555
SWIDTH 500 0
DWIDTH 5 0
BBX 4 8 0 0
BITMAP
70
00
50
00
70
90
90
E0
ENDCHAR
STARTCHAR uni022C
ENCODING 556
SWIDTH 778 0
DWIDTH 6 0
BBX 6 10 0 0
BITMAP
38
00
14
28
30
48
88
88
90
60
ENDCHAR
STARTCHAR uni022D
ENCODING 557
SWIDTH 500 0
DWIDTH 5 0
BBX 5 9 0 0
BITMAP
70
00
28
50
00
70
90
90
E0
ENDCHAR
STARTCHAR uni022E
ENCODING 558
SWIDTH 778 0
DWIDTH 6 0
BBX 5 8 0 0
BITMAP
20
00
30
48
88
88
90
60
ENDCHAR
STARTCHAR uni022F
ENCODING 559
SWIDTH 500 0
DWIDTH 5 0
BBX 4 6 0 0
BITMAP
20
00
70
90
90
E0
ENDCHAR
STARTCHAR uni0230
ENCODING 560
SWIDTH 778 0
DWIDTH 6 0
BBX 5 10 0 0
BITMAP
70
00
20
00
30
48
88
88
90
60
ENDCHAR
STARTCHAR uni0231
ENCODING 561
SWIDTH 500 0
DWIDTH 5 0
BBX 4 8 0 0
BITMAP
70
00
20
00
70
90
90
E0
ENDCHAR
STARTCHAR uni0232
ENCODING 562
SWIDTH 685 0
DWIDTH 6 0
BBX 6 8 0 0
BITMAP
38
00
CC
48
30
20
20
60
ENDCHAR
STARTCHAR uni0233
ENCODING 563
SWIDTH 500 0
DWIDTH 5 0
BBX 5 8 -1 -2
BITMAP
70
00
68
48
30
20
20
C0
ENDCHAR
STARTCHAR uni0250
ENCODING 592
SWIDTH 574 0
DWIDTH 5 0
BBX 4 4 0 0
BITMAP
E0
50
E0
60
ENDCHAR
STARTCHAR uni0259
ENCODING 601
SWIDTH 444 0
DWIDTH 4 0
BBX 3 4 0 0
BITMAP
C0
20
E0
C0
ENDCHAR
STARTCHAR uni025F
ENCODING 607
SWIDTH 333 0
DWIDTH 3 0
BBX 4 8 0 -4
BITMAP
10
10
10
20
20
F0
40
C0
ENDCHAR
STARTCHAR uni0265
ENCODING 613
SWIDTH 611 0
DWIDTH 5 0
BBX 4 6 0 -2
BITMAP
D0
50
A0
E0
20
30
ENDCHAR
STARTCHAR uni0275
ENCODING 629
SWIDTH 500 0
DWIDTH 5 0
BBX 4 4 0 0
BITMAP
70
F0
90
E0
ENDCHAR
STARTCHAR uni0279
ENCODING 633
SWIDTH 444 0
DWIDTH 4 0
BBX 4 4 0 0
BITMAP
10
10
20
F0
ENDCHAR
STARTCHAR uni0287
ENCODING 647
SWIDTH 352 0
DWIDTH 2 0
BBX 3 6 0 0
BITMAP
60
20
20
E0
40
40
ENDCHAR
STARTCHAR uni0289
ENCODING 649
SWIDTH 611 0
DWIDTH 5 0
BBX 4 4 0 0
BITMAP
D0
F0
B0
D0
ENDCHAR
STARTCHAR uni028C
ENCODING 652
SWIDTH 519 0
DWIDTH 5 0
BBX 4 4 0 0
BITMAP
20
50
90
B0
ENDCHAR
STARTCHAR uni028D
ENCODING 653
SWIDTH 778 0
DWIDTH 7 0
BBX 6 4 0 0
BITMAP
38
54
A4
AC
ENDCHAR
STARTCHAR uni028E
ENCODING 654
SWIDTH 500 0
DWIDTH 5 0
BBX 5 6 -1 0
BITMAP
18
20
20
60
90
B0
ENDCHAR
STARTCHAR uni029E
ENCODING 670
SWIDTH 556 0
DWIDTH 5 0
BBX 4 6 0 -2
BITMAP
D0
50
30
E0
20
30
ENDCHAR
STARTCHAR uni02BB
ENCODING 699
SWIDTH 204 0
DWIDTH 2 0
BBX 2 3 0 4
BITMAP
40
80
C0
ENDCHAR
STARTCHAR afii57929
ENCODING 700
SWIDTH 204 0
DWIDTH 2 0
BBX 2 3 0 4
BITMAP
40
40
80
ENDCHAR
STARTCHAR afii64937
ENCODING 701
SWIDTH 204 0
DWIDTH 2 0
BBX 2 3 0 4
BITMAP
80
80
40
ENDCHAR
STARTCHAR circumflex
ENCODING 710
SWIDTH 333 0
DWIDTH 4 0
BBX 3 2 0 6
BITMAP
40
A0
ENDCHAR
STARTCHAR caron
ENCODING 711
SWIDTH 333 0
DWIDTH 4 0
BBX 3 2 0 6
BITMAP
A0
40
ENDCHAR
STARTCHAR uni02C8
ENCODING 712
SWIDTH 278 0
DWIDTH 4 0
BBX 1 3 1 5
BITMAP
80
80
80
ENDCHAR
STARTCHAR macron
ENCODING 713
SWIDTH 333 0
DWIDTH 3 0
BBX 3 1 0 5
BITMAP
E0
ENDCHAR
STARTCHAR uni02CA
ENCODING 714
SWIDTH 333 0
DWIDTH 2 0
BBX 2 2 0 5
BITMAP
40
80
ENDCHAR
STARTCHAR uni02CB
ENCODING 715
SWIDTH 333 0
DWIDTH 3 0
BBX 2 2 0 6
BITMAP
80
40
ENDCHAR
STARTCHAR uni02CD
ENCODING 717
SWIDTH 333 0
DWIDTH 3 0
BBX 3 1 0 -2
BITMAP
E0
ENDCHAR
STARTCHAR uni02CE
ENCODING 718
SWIDTH 333 0
DWIDTH 3 0
BBX 2 2 0 -3
BITMAP
80
40
ENDCHAR
STARTCHAR uni02CF
ENCODING 719
SWIDTH 333 0
DWIDTH 2 0
BBX 2 2 0 -3
BITMAP
40
80
ENDCHAR
STARTCHAR breve
ENCODING 728
SWIDTH 333 0
DWIDTH 5 0
BBX 4 2 0 6
BITMAP
90
60
ENDCHAR
STARTCHAR dotaccent
ENCODING 729
SWIDTH 333 0
DWIDTH 2 0
BBX 1 1 0 6
BITMAP
80
ENDCHAR
STARTCHAR ring
ENCODING 730
SWIDTH 333 0
DWIDTH 4 0
BBX 4 3 0 6
BITMAP
60
90
60
ENDCHAR
STARTCHAR ogonek
ENCODING 731
SWIDTH 333 0
DWIDTH 3 0
BBX 2 3 0 -2
BITMAP
40
80
C0
ENDCHAR
STARTCHAR tilde
ENCODING 732
SWIDTH 333 0
DWIDTH 6 0
BBX 5 2 0 6
BITMAP
48
B0
ENDCHAR
STARTCHAR hungarumlaut
ENCODING 733
SWIDTH 333 0
DWIDTH 6 0
BBX 5 2 0 6
BITMAP
48
90
ENDCHAR
STARTCHAR uni02EE
ENCODING 750
SWIDTH 389 0
DWIDTH 5 0
BBX 4 3 0 5
BITMAP
50
50
A0
ENDCHAR
STARTCHAR uni037E
ENCODING 894
SWIDTH 278 0
DWIDTH 2 0
BBX 3 6 -1 -2
BITMAP
20
00
00
40
40
80
ENDCHAR
STARTCHAR tonos
ENCODING 900
SWIDTH 333 0
DWIDTH 2 0
BBX 2 2 0 5
BITMAP
40
80
ENDCHAR
STARTCHAR dieresistonos
ENCODING 901
SWIDTH 333 0
DWIDTH 3 0
BBX 3 4 0 5
BITMAP
20
40
00
A0
ENDCHAR
STARTCHAR anoteleia
ENCODING 903
SWIDTH 278 0
DWIDTH 2 0
BBX 1 1 0 2
BITMAP
80
ENDCHAR
STARTCHAR mu
ENCODING 956
SWIDTH 611 0
DWIDTH 5 0
BBX 5 5 -1 -1
BITMAP
68
48
50
78
80
ENDCHAR
STARTCHAR uni1E00
ENCODING 7680
SWIDTH 704 0
DWIDTH 6 0
BBX 6 10 -1 -4
BITMAP
08
18
24
3C
44
EC
00
30
48
30
ENDCHAR
STARTCHAR uni1E01
ENCODING 7681
SWIDTH 574 0
DWIDTH 5 0
BBX 4 8 0 -4
BITMAP
60
70
A0
70
00
60
90
60
ENDCHAR
STARTCHAR uni1E02
ENCODING 7682
SWIDTH 722 0
DWIDTH 6 0
BBX 5 8 0 0
BITMAP
20
00
78
28
30
48
48
F0
ENDCHAR
STARTCHAR uni1E03
ENCODING 7683
SWIDTH 556 0
DWIDTH 5 0
BBX 4 8 0 0
BITMAP
20
00
60
20
70
50
50
E0
ENDCHAR
STARTCHAR uni1E04
ENCODING 7684
SWIDTH 722 0
DWIDTH 6 0
BBX 5 8 0 -2
BITMAP
78
28
30
48
48
F0
00
20
ENDCHAR
STARTCHAR uni1E05
ENCODING 7685
SWIDTH 556 0
DWIDTH 5 0
BBX 4 8 0 -2
BITMAP
60
20
70
50
50
E0
00
40
ENDCHAR
STARTCHAR uni1E06
ENCODING 7686
SWIDTH 722 0
DWIDTH 6 0
BBX 5 8 0 -2
BITMAP
78
28
30
48
48
F0
00
70
ENDCHAR
STARTCHAR uni1E07
ENCODING 7687
SWIDTH 556 0
DWIDTH 5 0
BBX 4 8 0 -2
BITMAP
60
20
70
50
50
E0
00
E0
ENDCHAR
STARTCHAR uni1E08
ENCODING 7688
SWIDTH 722 0
DWIDTH 5 0
BBX 5 11 0 -2
BITMAP
10
20
00
38
48
80
80
90
60
20
40
ENDCHAR
STARTCHAR uni1E09
ENCODING 7689
SWIDTH 444 0
DWIDTH 4 0
BBX 4 12 0 -2
BITMAP
10
20
00
10
20
00
70
C0
80
60
40
80
ENDCHAR
STARTCHAR uni1E0A
ENCODING 7690
SWIDTH 778 0
DWIDTH 6 0
BBX 6 8 0 0
BITMAP
10
00
78
24
24
44
48
F0
ENDCHAR
STARTCHAR uni1E0B
ENCODING 7691
SWIDTH 611 0
DWIDTH 5 0
BBX 5 8 0 0
BITMAP
10
00
18
10
70
A0
A0
70
ENDCHAR
STARTCHAR uni1E0C
ENCODING 7692
SWIDTH 778 0
DWIDTH 6 0
BBX 6 8 0 -2
BITMAP
78
24
24
44
48
F0
00
20
ENDCHAR
STARTCHAR uni1E0D
ENCODING 7693
SWIDTH 611 0
DWIDTH 5 0
BBX 5 8 0 -2
BITMAP
18
10
70
A0
A0
70
00
20
ENDCHAR
STARTCHAR uni1E0E
ENCODING 7694
SWIDTH 778 0
DWIDTH 6 0
BBX 6 8 0 -2
BITMAP
78
24
24
44
48
F0
00
70
ENDCHAR
STARTCHAR uni1E0F
ENCODING 7695
SWIDTH 611 0
DWIDTH 5 0
BBX 5 8 0 -2
BITMAP
18
10
70
A0
A0
70
00
70
ENDCHAR
STARTCHAR uni1E10
ENCODING 7696
SWIDTH 778 0
DWIDTH 6 0
BBX 6 7 0 -1
BITMAP
78
24
24
44
48
F0
40
ENDCHAR
STARTCHAR uni1E11
ENCODING 7697
SWIDTH 611 0
DWIDTH 5 0
BBX 5 7 0 -1
BITMAP
18
10
70
A0
A0
70
40
ENDCHAR
STARTCHAR uni1E12
ENCODING 7698
SWIDTH 778 0
DWIDTH 6 0
BBX 6 9 0 -3
BITMAP
78
24
24
44
48
F0
00
20
50
ENDCHAR
STARTCHAR uni1E13
ENCODING 7699
SWIDTH 611 0
DWIDTH 5 0
BBX 5 9 0 -3
BITMAP
18
10
70
A0
A0
70
00
20
50
ENDCHAR
STARTCHAR uni1E14
ENCODING 7700
SWIDTH 722 0
DWIDTH 6 0
BBX 6 11 0 0
BITMAP
20
10
00
38
00
7C
24
30
40
48
F8
ENDCHAR
STARTCHAR uni1E15
ENCODING 7701
SWIDTH 444 0
DWIDTH 4 0
BBX 3 9 0 0
BITMAP
80
40
00
E0
00
60
E0
80
60
ENDCHAR
STARTCHAR uni1E16
ENCODING 7702
SWIDTH 722 0
DWIDTH 6 0
BBX 6 11 0 0
BITMAP
08
10
00
38
00
7C
24
30
40
48
F8
ENDCHAR
STARTCHAR uni1E17
ENCODING 7703
SWIDTH 444 0
DWIDTH 4 0
BBX 3 9 0 0
BITMAP
20
40
00
E0
00
60
E0
80
60
ENDCHAR
STARTCHAR uni1E18
ENCODING 7704
SWIDTH 722 0
DWIDTH 6 0
BBX 6 9 0 -3
BITMAP
7C
24
30
40
48
F8
00
20
50
ENDCHAR
STARTCHAR uni1E19
ENCODING 7705
SWIDTH 444 0
DWIDTH 4 0
BBX 3 7 0 -3
BITMAP
60
E0
80
60
00
40
A0
ENDCHAR
STARTCHAR uni1E1A
ENCODING 7706
SWIDTH 722 0
DWIDTH 6 0
BBX 6 9 0 -3
BITMAP
7C
24
30
40
48
F8
00
48
B0
ENDCHAR
STARTCHAR uni1E1B
ENCODING 7707
SWIDTH 444 0
DWIDTH 4 0
BBX 5 7 -1 -3
BITMAP
30
70
40
30
00
48
B0
ENDCHAR
STARTCHAR uni1E1C
ENCODING 7708
SWIDTH 722 0
DWIDTH 6 0
BBX 6 10 0 -1
BITMAP
48
30
00
7C
24
30
40
48
F8
40
ENDCHAR
STARTCHAR uni1E1D
ENCODING 7709
SWIDTH 444 0
DWIDTH 4 0
BBX 4 8 0 -1
BITMAP
90
60
00
60
E0
80
60
80
ENDCHAR
STARTCHAR uni1E1E
ENCODING 7710
SWIDTH 667 0
DWIDTH 6 0
BBX 6 8 0 0
BITMAP
10
00
7C
24
30
40
40
E0
ENDCHAR
STARTCHAR uni1E1F
ENCODING 7711
SWIDTH 333 0
DWIDTH 3 0
BBX 4 10 0 -2
BITMAP
20
00
30
20
F0
40
40
80
80
80
ENDCHAR
STARTCHAR uni1E20
ENCODING 7712
SWIDTH 778 0
DWIDTH 6 0
BBX 6 8 0 0
BITMAP
38
00
3C
44
80
9C
88
78
ENDCHAR
STARTCHAR uni1E21
ENCODING 7713
SWIDTH 537 0
DWIDTH 4 0
BBX 5 9 -1 -2
BITMAP
38
00
08
30
50
60
70
90
60
ENDCHAR
STARTCHAR uni1E22
ENCODING 7714
SWIDTH 833 0
DWIDTH 7 0
BBX 6 8 0 0
BITMAP
10
00
6C
24
3C
48
48
DC
ENDCHAR
STARTCHAR uni1E23
ENCODING 7715
SWIDTH 611 0
DWIDTH 5 0
BBX 4 8 0 0
BITMAP
40
00
C0
40
70
50
A0
B0
ENDCHAR
STARTCHAR uni1E24
ENCODING 7716
SWIDTH 833 0
DWIDTH 7 0
BBX 6 8 0 -2
BITMAP
6C
24
3C
48
48
DC
00
10
ENDCHAR
STARTCHAR uni1E25
ENCODING 7717
SWIDTH 611 0
DWIDTH 5 0
BBX 4 8 0 -2
BITMAP
C0
40
70
50
A0
B0
00
40
ENDCHAR
STARTCHAR uni1E26
ENCODING 7718
SWIDTH 833 0
DWIDTH 7 0
BBX 6 8 0 0
BITMAP
28
00
6C
24
3C
48
48
DC
ENDCHAR
STARTCHAR uni1E27
ENCODING 7719
SWIDTH 611 0
DWIDTH 5 0
BBX 4 8 0 0
BITMAP
A0
00
C0
40
70
50
A0
B0
ENDCHAR
STARTCHAR uni1E28
ENCODING 7720
SWIDTH 833 0
DWIDTH 7 0
BBX 6 7 0 -1
BITMAP
6C
24
3C
48
48
DC
20
ENDCHAR
STARTCHAR uni1E29
ENCODING 7721
SWIDTH 611 0
DWIDTH 5 0
BBX 4 7 0 -1
BITMAP
C0
40
70
50
A0
B0
40
ENDCHAR
STARTCHAR uni1E2A
ENCODING 7722
SWIDTH 833 0
DWIDTH 7 0
BBX 6 9 0 -3
BITMAP
6C
24
3C
48
48
DC
00
48
30
ENDCHAR
STARTCHAR uni1E2B
ENCODING 7723
SWIDTH 611 0
DWIDTH 5 0
BBX 4 9 0 -3
BITMAP
C0
40
70
50
A0
B0
00
90
60
ENDCHAR
STARTCHAR uni1E2C
ENCODING 7724
SWIDTH 407 0
DWIDTH 4 0
BBX 5 9 -1 -3
BITMAP
38
10
10
20
20
70
00
48
B0
ENDCHAR
STARTCHAR uni1E2D
ENCODING 7725
SWIDTH 333 0
DWIDTH 2 0
BBX 5 9 -2 -3
BITMAP
08
00
30
10
20
20
00
48
B0
ENDCHAR
STARTCHAR uni1E2E
ENCODING 7726
SWIDTH 407 0
DWIDTH 4 0
BBX 4 11 0 0
BITMAP
10
20
00
50
00
70
20
20
40
40
E0
ENDCHAR
STARTCHAR uni1E2F
ENCODING 7727
SWIDTH 333 0
DWIDTH 2 0
BBX 3 9 0 0
BITMAP
20
40
00
A0
00
C0
40
80
80
ENDCHAR
STARTCHAR uni1E30
ENCODING 7728
SWIDTH 741 0
DWIDTH 6 0
BBX 6 9 0 0
BITMAP
08
10
00
64
28
30
60
50
D8
ENDCHAR
STARTCHAR uni1E31
ENCODING 7729
SWIDTH 556 0
DWIDTH 5 0
BBX 4 9 0 0
BITMAP
20
40
00
C0
40
70
C0
A0
B0
ENDCHAR
STARTCHAR uni1E32
ENCODING 7730
SWIDTH 741 0
DWIDTH 6 0
BBX 6 8 0 -2
BITMAP
64
28
30
60
50
D8
00
20
ENDCHAR
STARTCHAR uni1E33
ENCODING 7731
SWIDTH 556 0
DWIDTH 5 0
BBX 4 8 0 -2
BITMAP
C0
40
70
C0
A0
B0
00
40
ENDCHAR
STARTCHAR uni1E34
ENCODING 7732
SWIDTH 741 0
DWIDTH 6 0
BBX 6 8 0 -2
BITMAP
64
28
30
60
50
D8
00
70
ENDCHAR
STARTCHAR uni1E35
ENCODING 7733
SWIDTH 556 0
DWIDTH 5 0
BBX 4 8 0 -2
BITMAP
C0
40
70
C0
A0
B0
00
E0
ENDCHAR
STARTCHAR uni1E36
ENCODING 7734
SWIDTH 667 0
DWIDTH 6 0
BBX 5 8 0 -2
BITMAP
70
20
20
40
48
F8
00
20
ENDCHAR
STARTCHAR uni1E37
ENCODING 7735
SWIDTH 333 0
DWIDTH 2 0
BBX 2 8 0 -2
BITMAP
C0
40
40
80
80
80
00
80
ENDCHAR
STARTCHAR uni1E38
ENCODING 7736
SWIDTH 667 0
DWIDTH 6 0
BBX 5 10 0 -2
BITMAP
70
00
70
20
20
40
48
F8
00
20
ENDCHAR
STARTCHAR uni1E39
ENCODING 7737
SWIDTH 333 0
DWIDTH 2 0
BBX 3 10 0 -2
BITMAP
E0
00
C0
40
40
80
80
80
00
80
ENDCHAR
STARTCHAR uni1E3A
ENCODING 7738
SWIDTH 667 0
DWIDTH 6 0
BBX 5 8 0 -2
BITMAP
70
20
20
40
48
F8
00
70
ENDCHAR
STARTCHAR uni1E3B
ENCODING 7739
SWIDTH 333 0
DWIDTH 2 0
BBX 3 8 -1 -2
BITMAP
60
20
20
40
40
40
00
E0
ENDCHAR
STARTCHAR uni1E3C
ENCODING 7740
SWIDTH 667 0
DWIDTH 6 0
BBX 5 9 0 -3
BITMAP
70
20
20
40
48
F8
00
20
50
ENDCHAR
STARTCHAR uni1E3D
ENCODING 7741
SWIDTH 333 0
DWIDTH 2 0
BBX 3 9 -1 -3
BITMAP
60
20
20
40
40
40
00
40
A0
ENDCHAR
STARTCHAR uni1E3E
ENCODING 7742
SWIDTH 944 0
DWIDTH 10 0
BBX 9 9 0 0
BITMAP
0400
0800
0000
6380
2300
2500
5A00
5A00
D300
ENDCHAR
STARTCHAR uni1E3F
ENCODING 7743
SWIDTH 889 0
DWIDTH 7 0
BBX 6 7 0 0
BITMAP
08
10
00
AC
74
A8
AC
ENDCHAR
STARTCHAR uni1E40
ENCODING 7744
SWIDTH 944 0
DWIDTH 10 0
BBX 9 8 0 0
BITMAP
0400
0000
6380
2300
2500
5A00
5A00
D300
ENDCHAR
STARTCHAR uni1E41
ENCODING 7745
SWIDTH 889 0
DWIDTH 7 0
BBX 6 6 0 0
BITMAP
10
00
AC
74
A8
AC
ENDCHAR
STARTCHAR uni1E42
ENCODING 7746
SWIDTH 944 0
DWIDTH 10 0
BBX 9 8 0 -2
BITMAP
6380
2300
2500
5A00
5A00
D300
0000
0800
ENDCHAR
STARTCHAR uni1E43
ENCODING 7747
SWIDTH 889 0
DWIDTH 7 0
BBX 6 6 0 -2
BITMAP
AC
74
A8
AC
00
20
ENDCHAR
STARTCHAR uni1E44
ENCODING 7748
SWIDTH 815 0
DWIDTH 7 0
BBX 7 8 0 0
BITMAP
10
00
66
24
34
58
48
E8
ENDCHAR
STARTCHAR uni1E45
ENCODING 7749
SWIDTH 611 0
DWIDTH 5 0
BBX 4 6 0 0
BITMAP
20
00
F0
50
A0
B0
ENDCHAR
STARTCHAR uni1E46
ENCODING 7750
SWIDTH 815 0
DWIDTH 7 0
BBX 7 8 0 -2
BITMAP
66
24
34
58
48
E8
00
20
ENDCHAR
STARTCHAR uni1E47
ENCODING 7751
SWIDTH 611 0
DWIDTH 5 0
BBX 4 6 0 -2
BITMAP
F0
50
A0
B0
00
40
ENDCHAR
STARTCHAR uni1E48
ENCODING 7752
SWIDTH 815 0
DWIDTH 7 0
BBX 7 8 0 -2
BITMAP
66
24
34
58
48
E8
00
70
ENDCHAR
STARTCHAR uni1E49
ENCODING 7753
SWIDTH 611 0
DWIDTH 5 0
BBX 4 6 0 -2
BITMAP
F0
50
A0
B0
00
E0
ENDCHAR
STARTCHAR uni1E4A
ENCODING 7754
SWIDTH 815 0
DWIDTH 7 0
BBX 7 9 0 -3
BITMAP
66
24
34
58
48
E8
00
20
50
ENDCHAR
STARTCHAR uni1E4B
ENCODING 7755
SWIDTH 611 0
DWIDTH 5 0
BBX 4 7 0 -3
BITMAP
F0
50
A0
B0
00
40
A0
ENDCHAR
STARTCHAR uni1E4C
ENCODING 7756
SWIDTH 778 0
DWIDTH 6 0
BBX 6 11 0 0
BITMAP
08
10
00
14
28
30
48
88
88
90
60
ENDCHAR
STARTCHAR uni1E4D
ENCODING 7757
SWIDTH 500 0
DWIDTH 5 0
BBX 5 10 0 0
BITMAP
10
20
00
28
50
00
70
90
90
E0
ENDCHAR
STARTCHAR uni1E4E
ENCODING 7758
SWIDTH 778 0
DWIDTH 6 0
BBX 6 10 0 0
BITMAP
28
00
14
28
30
48
88
88
90
60
ENDCHAR
STARTCHAR uni1E4F
ENCODING 7759
SWIDTH 500 0
DWIDTH 5 0
BBX 5 9 0 0
BITMAP
50
00
28
50
00
70
90
90
E0
ENDCHAR
STARTCHAR uni1E50
ENCODING 7760
SWIDTH 778 0
DWIDTH 6 0
BBX 5 11 0 0
BITMAP
40
20
00
70
00
30
48
88
88
90
60
ENDCHAR
STARTCHAR uni1E51
ENCODING 7761
SWIDTH 500 0
DWIDTH 5 0
BBX 4 9 0 0
BITMAP
40
20
00
70
00
70
90
90
E0
ENDCHAR
STARTCHAR uni1E52
ENCODING 7762
SWIDTH 778 0
DWIDTH 6 0
BBX 5 11 0 0
BITMAP
10
20
00
70
00
30
48
88
88
90
60
ENDCHAR
STARTCHAR uni1E53
ENCODING 7763
SWIDTH 500 0
DWIDTH 5 0
BBX 4 9 0 0
BITMAP
10
20
00
70
00
70
90
90
E0
ENDCHAR
STARTCHAR uni1E54
ENCODING 7764
SWIDTH 667 0
DWIDTH 6 0
BBX 6 9 0 0
BITMAP
08
10
00
78
24
28
70
40
E0
ENDCHAR
STARTCHAR uni1E55
ENCODING 7765
SWIDTH 574 0
DWIDTH 5 0
BBX 5 9 -1 -2
BITMAP
10
20
00
70
28
28
70
40
C0
ENDCHAR
STARTCHAR uni1E56
ENCODING 7766
SWIDTH 667 0
DWIDTH 6 0
BBX 6 8 0 0
BITMAP
10
00
78
24
28
70
40
E0
ENDCHAR
STARTCHAR uni1E57
ENCODING 7767
SWIDTH 574 0
DWIDTH 5 0
BBX 5 8 -1 -2
BITMAP
20
00
70
28
28
70
40
C0
ENDCHAR
STARTCHAR uni1E58
ENCODING 7768
SWIDTH 741 0
DWIDTH 6 0
BBX 6 8 0 0
BITMAP
10
00
78
24
38
50
48
EC
ENDCHAR
STARTCHAR uni1E59
ENCODING 7769
SWIDTH 444 0
DWIDTH 4 0
BBX 4 6 0 0
BITMAP
40
00
F0
40
80
80
ENDCHAR
STARTCHAR uni1E5A
ENCODING 7770
SWIDTH 741 0
DWIDTH 6 0
BBX 6 8 0 -2
BITMAP
78
24
38
50
48
EC
00
20
ENDCHAR
STARTCHAR uni1E5B
ENCODING 7771
SWIDTH 444 0
DWIDTH 4 0
BBX 4 6 0 -2
BITMAP
F0
40
80
80
00
40
ENDCHAR
STARTCHAR uni1E5C
ENCODING 7772
SWIDTH 741 0
DWIDTH 6 0
BBX 6 10 0 -2
BITMAP
38
00
78
24
38
50
48
EC
00
20
ENDCHAR
STARTCHAR uni1E5D
ENCODING 7773
SWIDTH 444 0
DWIDTH 4 0
BBX 4 8 0 -2
BITMAP
E0
00
F0
40
80
80
00
40
ENDCHAR
STARTCHAR uni1E5E
ENCODING 7774
SWIDTH 741 0
DWIDTH 6 0
BBX 6 8 0 -2
BITMAP
78
24
38
50
48
EC
00
70
ENDCHAR
STARTCHAR uni1E5F
ENCODING 7775
SWIDTH 444 0
DWIDTH 4 0
BBX 4 6 0 -2
BITMAP
F0
40
80
80
00
E0
ENDCHAR
STARTCHAR uni1E60
ENCODING 7776
SWIDTH 667 0
DWIDTH 6 0
BBX 5 8 1 0
BITMAP
20
00
38
40
60
30
90
E0
ENDCHAR
STARTCHAR uni1E61
ENCODING 7777
SWIDTH 444 0
DWIDTH 3 0
BBX 3 6 0 0
BITMAP
40
00
60
C0
20
C0
ENDCHAR
STARTCHAR uni1E62
ENCODING 7778
SWIDTH 667 0
DWIDTH 6 0
BBX 5 8 1 -2
BITMAP
38
40
60
30
90
E0
00
40
ENDCHAR
STARTCHAR uni1E63
ENCODING 7779
SWIDTH 444 0
DWIDTH 3 0
BBX 3 6 0 -2
BITMAP
60
C0
20
C0
00
40
ENDCHAR
STARTCHAR uni1E64
ENCODING 7780
SWIDTH 667 0
DWIDTH 6 0
BBX 5 11 1 0
BITMAP
20
00
10
20
00
38
40
60
30
90
E0
ENDCHAR
STARTCHAR uni1E65
ENCODING 7781
SWIDTH 444 0
DWIDTH 3 0
BBX 3 9 0 0
BITMAP
40
00
20
40
00
60
C0
20
C0
ENDCHAR
STARTCHAR uni1E66
ENCODING 7782
SWIDTH 667 0
DWIDTH 7 0
BBX 6 10 0 0
BITMAP
10
00
28
10
3C
44
20
10
88
F0
ENDCHAR
STARTCHAR uni1E67
ENCODING 7783
SWIDTH 444 0
DWIDTH 4 0
BBX 4 10 0 0
BITMAP
20
00
50
20
00
70
80
E0
20
C0
ENDCHAR
STARTCHAR uni1E68
ENCODING 7784
SWIDTH 667 0
DWIDTH 6 0
BBX 5 10 1 -2
BITMAP
20
00
38
40
60
30
90
E0
00
40
ENDCHAR
STARTCHAR uni1E69
ENCODING 7785
SWIDTH 444 0
DWIDTH 3 0
BBX 3 8 0 -2
BITMAP
40
00
60
C0
20
C0
00
40
ENDCHAR
STARTCHAR uni1E6A
ENCODING 7786
SWIDTH 685 0
DWIDTH 6 0
BBX 5 8 1 0
BITMAP
20
00
F8
A8
20
40
40
E0
ENDCHAR
STARTCHAR uni1E6B
ENCODING 7787
SWIDTH 352 0
DWIDTH 2 0
BBX 3 8 0 0
BITMAP
40
00
40
40
E0
80
80
C0
ENDCHAR
STARTCHAR uni1E6C
ENCODING 7788
SWIDTH 685 0
DWIDTH 6 0
BBX 5 8 1 -2
BITMAP
F8
A8
20
40
40
E0
00
40
ENDCHAR
STARTCHAR uni1E6D
ENCODING 7789
SWIDTH 352 0
DWIDTH 2 0
BBX 3 8 0 -2
BITMAP
40
40
E0
80
80
C0
00
40
ENDCHAR
STARTCHAR uni1E6E
ENCODING 7790
SWIDTH 685 0
DWIDTH 6 0
BBX 5 8 1 -2
BITMAP
F8
A8
20
40
40
E0
00
E0
ENDCHAR
STARTCHAR uni1E6F
ENCODING 7791
SWIDTH 352 0
DWIDTH 2 0
BBX 3 8 0 -2
BITMAP
40
40
E0
80
80
C0
00
E0
ENDCHAR
STARTCHAR uni1E70
ENCODING 7792
SWIDTH 685 0
DWIDTH 6 0
BBX 5 9 1 -3
BITMAP
F8
A8
20
40
40
E0
00
40
A0
ENDCHAR
STARTCHAR uni1E71
ENCODING 7793
SWIDTH 352 0
DWIDTH 2 0
BBX 3 9 0 -3
BITMAP
40
40
E0
80
80
C0
00
40
A0
ENDCHAR
STARTCHAR uni1E72
ENCODING 7794
SWIDTH 815 0
DWIDTH 6 0
BBX 6 8 0 -2
BITMAP
EC
48
48
90
90
60
00
50
ENDCHAR
STARTCHAR uni1E73
ENCODING 7795
SWIDTH 611 0
DWIDTH 5 0
BBX 4 6 0 -2
BITMAP
D0
50
B0
D0
00
50
ENDCHAR
STARTCHAR uni1E74
ENCODING 7796
SWIDTH 815 0
DWIDTH 6 0
BBX 6 9 0 -3
BITMAP
EC
48
48
90
90
60
00
48
B0
ENDCHAR
STARTCHAR uni1E75
ENCODING 7797
SWIDTH 611 0
DWIDTH 5 0
BBX 5 7 -1 -3
BITMAP
68
28
58
68
00
48
B0
ENDCHAR
STARTCHAR uni1E76
ENCODING 7798
SWIDTH 815 0
DWIDTH 6 0
BBX 6 9 0 -3
BITMAP
EC
48
48
90
90
60
00
20
50
ENDCHAR
STARTCHAR uni1E77
ENCODING 7799
SWIDTH 611 0
DWIDTH 5 0
BBX 4 7 0 -3
BITMAP
D0
50
B0
D0
00
20
50
ENDCHAR
STARTCHAR uni1E78
ENCODING 7800
SWIDTH 815 0
DWIDTH 6 0
BBX 6 12 0 0
BITMAP
08
10
00
24
58
00
EC
48
48
90
90
60
ENDCHAR
STARTCHAR uni1E79
ENCODING 7801
SWIDTH 611 0
DWIDTH 5 0
BBX 5 10 0 0
BITMAP
10
20
00
48
B0
00
D0
50
B0
D0
ENDCHAR
STARTCHAR uni1E7A
ENCODING 7802
SWIDTH 815 0
DWIDTH 6 0
BBX 6 10 0 0
BITMAP
50
00
70
00
EC
48
48
90
90
60
ENDCHAR
STARTCHAR uni1E7B
ENCODING 7803
SWIDTH 611 0
DWIDTH 5 0
BBX 4 8 0 0
BITMAP
50
00
70
00
D0
50
B0
D0
ENDCHAR
STARTCHAR uni1E7C
ENCODING 7804
SWIDTH 704 0
DWIDTH 6 0
BBX 6 9 0 0
BITMAP
24
58
00
EC
48
48
30
20
20
ENDCHAR
STARTCHAR uni1E7D
ENCODING 7805
SWIDTH 519 0
DWIDTH 5 0
BBX 5 7 0 0
BITMAP
48
B0
00
D0
90
A0
40
ENDCHAR
STARTCHAR uni1E7E
ENCODING 7806
SWIDTH 704 0
DWIDTH 6 0
BBX 6 8 0 -2
BITMAP
EC
48
48
30
20
20
00
20
ENDCHAR
STARTCHAR uni1E7F
ENCODING 7807
SWIDTH 519 0
DWIDTH 5 0
BBX 4 6 0 -2
BITMAP
D0
90
A0
40
00
40
ENDCHAR
STARTCHAR Wgrave
ENCODING 7808
SWIDTH 926 0
DWIDTH 9 0
BBX 9 9 0 0
BITMAP
1000
0800
0000
ED80
4900
5A00
3600
2400
2400
ENDCHAR
STARTCHAR wgrave
ENCODING 7809
SWIDTH 778 0
DWIDTH 7 0
BBX 6 7 0 0
BITMAP
20
10
00
D4
94
A8
70
ENDCHAR
STARTCHAR Wacute
ENCODING 7810
SWIDTH 926 0
DWIDTH 9 0
BBX 9 9 0 0
BITMAP
0400
0800
0000
ED80
4900
5A00
3600
2400
2400
ENDCHAR
STARTCHAR wacute
ENCODING 7811
SWIDTH 778 0
DWIDTH 7 0
BBX 6 7 0 0
BITMAP
10
20
00
D4
94
A8
70
ENDCHAR
STARTCHAR Wdieresis
ENCODING 7812
SWIDTH 926 0
DWIDTH 9 0
BBX 9 8 0 0
BITMAP
1400
0000
ED80
4900
5A00
3600
2400
2400
ENDCHAR
STARTCHAR wdieresis
ENCODING 7813
SWIDTH 778 0
DWIDTH 7 0
BBX 6 6 0 0
BITMAP
50
00
D4
94
A8
70
ENDCHAR
STARTCHAR uni1E86
ENCODING 7814
SWIDTH 926 0
DWIDTH 9 0
BBX 9 8 0 0
BITMAP
0800
0000
ED80
4900
5A00
3600
2400
2400
ENDCHAR
STARTCHAR uni1E87
ENCODING 7815
SWIDTH 778 0
DWIDTH 7 0
BBX 6 6 0 0
BITMAP
20
00
D4
94
A8
70
ENDCHAR
STARTCHAR uni1E88
ENCODING 7816
SWIDTH 926 0
DWIDTH 9 0
BBX 9 8 0 -2
BITMAP
ED80
4900
5A00
3600
2400
2400
0000
0800
ENDCHAR
STARTCHAR uni1E89
ENCODING 7817
SWIDTH 778 0
DWIDTH 7 0
BBX 6 6 0 -2
BITMAP
D4
94
A8
70
00
20
ENDCHAR
STARTCHAR uni1E8A
ENCODING 7818
SWIDTH 704 0
DWIDTH 6 0
BBX 6 8 0 0
BITMAP
10
00
64
38
10
30
48
CC
ENDCHAR
STARTCHAR uni1E8B
ENCODING 7819
SWIDTH 500 0
DWIDTH 5 0
BBX 6 6 -1 0
BITMAP
10
00
6C
30
20
D8
ENDCHAR
STARTCHAR uni1E8C
ENCODING 7820
SWIDTH 704 0
DWIDTH 6 0
BBX 6 8 0 0
BITMAP
28
00
64
38
10
30
48
CC
ENDCHAR
STARTCHAR uni1E8D
ENCODING 7821
SWIDTH 500 0
DWIDTH 5 0
BBX 6 6 -1 0
BITMAP
28
00
6C
30
20
D8
ENDCHAR
STARTCHAR uni1E8E
ENCODING 7822
SWIDTH 685 0
DWIDTH 6 0
BBX 6 8 0 0
BITMAP
10
00
CC
48
30
20
20
60
ENDCHAR
STARTCHAR uni1E8F
ENCODING 7823
SWIDTH 500 0
DWIDTH 5 0
BBX 5 8 -1 -2
BITMAP
20
00
68
48
30
20
20
C0
ENDCHAR
STARTCHAR uni1E90
ENCODING 7824
SWIDTH 667 0
DWIDTH 6 0
BBX 6 9 0 0
BITMAP
10
28
00
7C
48
10
20
48
F8
ENDCHAR
STARTCHAR uni1E91
ENCODING 7825
SWIDTH 463 0
DWIDTH 5 0
BBX 4 7 0 0
BITMAP
20
50
00
70
20
50
E0
ENDCHAR
STARTCHAR uni1E92
ENCODING 7826
SWIDTH 667 0
DWIDTH 6 0
BBX 6 8 0 -2
BITMAP
7C
48
10
20
48
F8
00
20
ENDCHAR
STARTCHAR uni1E93
ENCODING 7827
SWIDTH 463 0
DWIDTH 5 0
BBX 4 6 0 -2
BITMAP
70
20
50
E0
00
40
ENDCHAR
STARTCHAR uni1E94
ENCODING 7828
SWIDTH 667 0
DWIDTH 6 0
BBX 6 8 0 -2
BITMAP
7C
48
10
20
48
F8
00
70
ENDCHAR
STARTCHAR uni1E95
ENCODING 7829
SWIDTH 463 0
DWIDTH 5 0
BBX 4 6 0 -2
BITMAP
70
20
50
E0
00
E0
ENDCHAR
STARTCHAR uni1E96
ENCODING 7830
SWIDTH 611 0
DWIDTH 5 0
BBX 4 8 0 -2
BITMAP
C0
40
70
50
A0
B0
00
E0
ENDCHAR
STARTCHAR uni1E97
ENCODING 7831
SWIDTH 352 0
DWIDTH 2 0
BBX 3 8 0 0
BITMAP
A0
00
40
40
E0
80
80
C0
ENDCHAR
STARTCHAR uni1E98
ENCODING 7832
SWIDTH 778 0
DWIDTH 7 0
BBX 6 8 0 0
BITMAP
30
48
30
00
D4
94
A8
70
ENDCHAR
STARTCHAR uni1E99
ENCODING 7833
SWIDTH 500 0
DWIDTH 5 0
BBX 5 10 -1 -2
BITMAP
30
48
30
00
68
48
30
20
20
C0
ENDCHAR
STARTCHAR uni1EA0
ENCODING 7840
SWIDTH 704 0
DWIDTH 6 0
BBX 6 8 -1 -2
BITMAP
08
18
24
3C
44
EC
00
10
ENDCHAR
STARTCHAR uni1EA1
ENCODING 7841
SWIDTH 574 0
DWIDTH 5 0
BBX 4 6 0 -2
BITMAP
60
70
A0
70
00
20
ENDCHAR
STARTCHAR uni1EA4
ENCODING 7844
SWIDTH 704 0
DWIDTH 6 0
BBX 6 11 -1 0
BITMAP
08
10
00
08
14
00
18
24
3C
44
EC
ENDCHAR
STARTCHAR uni1EA5
ENCODING 7845
SWIDTH 574 0
DWIDTH 5 0
BBX 4 10 0 0
BITMAP
10
20
00
20
50
00
60
70
A0
70
ENDCHAR
STARTCHAR uni1EA6
ENCODING 7846
SWIDTH 704 0
DWIDTH 6 0
BBX 6 11 -1 0
BITMAP
10
08
00
08
14
00
18
24
3C
44
EC
ENDCHAR
STARTCHAR uni1EA7
ENCODING 7847
SWIDTH 574 0
DWIDTH 5 0
BBX 4 10 0 0
BITMAP
40
20
00
20
50
00
60
70
A0
70
ENDCHAR
STARTCHAR uni1EAA
ENCODING 7850
SWIDTH 704 0
DWIDTH 6 0
BBX 7 11 -1 0
BITMAP
12
2C
00
08
14
00
18
24
3C
44
EC
ENDCHAR
STARTCHAR uni1EAB
ENCODING 7851
SWIDTH 574 0
DWIDTH 5 0
BBX 5 10 0 0
BITMAP
48
B0
00
20
50
00
60
70
A0
70
ENDCHAR
STARTCHAR uni1EAC
ENCODING 7852
SWIDTH 704 0
DWIDTH 6 0
BBX 6 11 -1 -2
BITMAP
10
28
00
08
18
24
3C
44
EC
00
10
ENDCHAR
STARTCHAR uni1EAD
ENCODING 7853
SWIDTH 574 0
DWIDTH 5 0
BBX 4 9 0 -2
BITMAP
20
50
00
60
70
A0
70
00
20
ENDCHAR
STARTCHAR uni1EAE
ENCODING 7854
SWIDTH 704 0
DWIDTH 6 0
BBX 6 12 -1 0
BITMAP
08
10
00
24
18
00
08
18
24
3C
44
EC
ENDCHAR
STARTCHAR uni1EAF
ENCODING 7855
SWIDTH 574 0
DWIDTH 5 0
BBX 4 10 0 0
BITMAP
20
40
00
90
60
00
60
70
A0
70
ENDCHAR
STARTCHAR uni1EB0
ENCODING 7856
SWIDTH 704 0
DWIDTH 6 0
BBX 6 12 -1 0
BITMAP
20
10
00
24
18
00
08
18
24
3C
44
EC
ENDCHAR
STARTCHAR uni1EB1
ENCODING 7857
SWIDTH 574 0
DWIDTH 5 0
BBX 4 10 0 0
BITMAP
40
20
00
90
60
00
60
70
A0
70
ENDCHAR
STARTCHAR uni1EB4
ENCODING 7860
SWIDTH 704 0
DWIDTH 6 0
BBX 6 12 -1 0
BITMAP
24
58
00
24
18
00
08
18
24
3C
44
EC
ENDCHAR
STARTCHAR uni1EB5
ENCODING 7861
SWIDTH 574 0
DWIDTH 5 0
BBX 5 10 0 0
BITMAP
48
B0
00
90
60
00
60
70
A0
70
ENDCHAR
STARTCHAR uni1EB6
ENCODING 7862
SWIDTH 704 0
DWIDTH 6 0
BBX 6 11 -1 -2
BITMAP
24
18
00
08
18
24
3C
44
EC
00
10
ENDCHAR
STARTCHAR uni1EB7
ENCODING 7863
SWIDTH 574 0
DWIDTH 5 0
BBX 4 9 0 -2
BITMAP
90
60
00
60
70
A0
70
00
20
ENDCHAR
STARTCHAR uni1EB8
ENCODING 7864
SWIDTH 722 0
DWIDTH 6 0
BBX 6 8 0 -2
BITMAP
7C
24
30
40
48
F8
00
20
ENDCHAR
STARTCHAR uni1EB9
ENCODING 7865
SWIDTH 444 0
DWIDTH 4 0
BBX 3 6 0 -2
BITMAP
60
E0
80
60
00
40
ENDCHAR
STARTCHAR uni1EBC
ENCODING 7868
SWIDTH 722 0
DWIDTH 6 0
BBX 6 9 0 0
BITMAP
24
58
00
7C
24
30
40
48
F8
ENDCHAR
STARTCHAR uni1EBD
ENCODING 7869
SWIDTH 444 0
DWIDTH 4 0
BBX 5 7 -1 0
BITMAP
48
B0
00
30
70
40
30
ENDCHAR
STARTCHAR uni1EBE
ENCODING 7870
SWIDTH 722 0
DWIDTH 6 0
BBX 6 11 0 0
BITMAP
08
10
00
10
28
7C
24
30
40
48
F8
ENDCHAR
STARTCHAR uni1EBF
ENCODING 7871
SWIDTH 444 0
DWIDTH 4 0
BBX 4 10 0 0
BITMAP
10
20
00
20
50
00
60
E0
80
60
ENDCHAR
STARTCHAR uni1EC0
ENCODING 7872
SWIDTH 722 0
DWIDTH 6 0
BBX 6 11 0 0
BITMAP
20
10
00
10
28
7C
24
30
40
48
F8
ENDCHAR
STARTCHAR uni1EC1
ENCODING 7873
SWIDTH 444 0
DWIDTH 4 0
BBX 4 10 0 0
BITMAP
40
20
00
20
50
00
60
E0
80
60
ENDCHAR
STARTCHAR uni1EC4
ENCODING 7876
SWIDTH 722 0
DWIDTH 6 0
BBX 6 11 0 0
BITMAP
24
58
00
10
28
7C
24
30
40
48
F8
ENDCHAR
STARTCHAR uni1EC5
ENCODING 7877
SWIDTH 444 0
DWIDTH 4 0
BBX 5 10 0 0
BITMAP
48
B0
00
20
50
00
60
E0
80
60
ENDCHAR
STARTCHAR uni1EC6
ENCODING 7878
SWIDTH 722 0
DWIDTH 6 0
BBX 6 11 0 -2
BITMAP
10
28
00
7C
24
30
40
48
F8
00
20
ENDCHAR
STARTCHAR uni1EC7
ENCODING 7879
SWIDTH 444 0
DWIDTH 4 0
BBX 3 9 0 -2
BITMAP
40
A0
00
60
E0
80
60
00
40
ENDCHAR
STARTCHAR uni1ECA
ENCODING 7882
SWIDTH 407 0
DWIDTH 4 0
BBX 4 8 0 -2
BITMAP
70
20
20
40
40
E0
00
40
ENDCHAR
STARTCHAR uni1ECB
ENCODING 7883
SWIDTH 333 0
DWIDTH 2 0
BBX 3 8 0 -2
BITMAP
20
00
C0
40
80
80
00
80
ENDCHAR
STARTCHAR uni1ECC
ENCODING 7884
SWIDTH 778 0
DWIDTH 6 0
BBX 5 8 0 -2
BITMAP
30
48
88
88
90
60
00
20
ENDCHAR
STARTCHAR uni1ECD
ENCODING 7885
SWIDTH 500 0
DWIDTH 5 0
BBX 4 6 0 -2
BITMAP
70
90
90
E0
00
40
ENDCHAR
STARTCHAR uni1ED0
ENCODING 7888
SWIDTH 778 0
DWIDTH 6 0
BBX 5 11 0 0
BITMAP
10
20
00
10
28
30
48
88
88
90
60
ENDCHAR
STARTCHAR uni1ED1
ENCODING 7889
SWIDTH 500 0
DWIDTH 5 0
BBX 4 10 0 0
BITMAP
10
20
00
20
50
00
70
90
90
E0
ENDCHAR
STARTCHAR uni1ED2
ENCODING 7890
SWIDTH 778 0
DWIDTH 6 0
BBX 5 11 0 0
BITMAP
20
10
00
10
28
30
48
88
88
90
60
ENDCHAR
STARTCHAR uni1ED3
ENCODING 7891
SWIDTH 500 0
DWIDTH 5 0
BBX 4 10 0 0
BITMAP
40
20
00
20
50
00
70
90
90
E0
ENDCHAR
STARTCHAR uni1ED6
ENCODING 7894
SWIDTH 778 0
DWIDTH 6 0
BBX 6 11 0 0
BITMAP
24
58
00
10
28
30
48
88
88
90
60
ENDCHAR
STARTCHAR uni1ED7
ENCODING 7895
SWIDTH 500 0
DWIDTH 5 0
BBX 5 10 0 0
BITMAP
48
B0
00
20
50
00
70
90
90
E0
ENDCHAR
STARTCHAR uni1ED8
ENCODING 7896
SWIDTH 778 0
DWIDTH 6 0
BBX 5 11 0 -2
BITMAP
20
50
00
30
48
88
88
90
60
00
20
ENDCHAR
STARTCHAR uni1ED9
ENCODING 7897
SWIDTH 500 0
DWIDTH 5 0
BBX 4 9 0 -2
BITMAP
20
50
00
70
90
90
E0
00
40
ENDCHAR
STARTCHAR uni1EDA
ENCODING 7898
SWIDTH 778 0
DWIDTH 6 0
BBX 7 9 0 0
BITMAP
08
10
00
32
4A
8C
88
90
60
ENDCHAR
STARTCHAR uni1EDB
ENCODING 7899
SWIDTH 500 0
DWIDTH 5 0
BBX 6 7 0 0
BITMAP
10
20
00
74
94
98
E0
ENDCHAR
STARTCHAR uni1EDC
ENCODING 7900
SWIDTH 778 0
DWIDTH 6 0
BBX 7 9 0 0
BITMAP
10
08
00
32
4A
8C
88
90
60
ENDCHAR
STARTCHAR uni1EDD
ENCODING 7901
SWIDTH 500 0
DWIDTH 5 0
BBX 6 7 0 0
BITMAP
20
10
00
74
94
98
E0
ENDCHAR
STARTCHAR uni1EE0
ENCODING 7904
SWIDTH 778 0
DWIDTH 6 0
BBX 7 9 0 0
BITMAP
12
2C
00
32
4A
8C
88
90
60
ENDCHAR
STARTCHAR uni1EE1
ENCODING 7905
SWIDTH 500 0
DWIDTH 5 0
BBX 6 7 0 0
BITMAP
24
58
00
74
94
98
E0
ENDCHAR
STARTCHAR uni1EE2
ENCODING 7906
SWIDTH 778 0
DWIDTH 6 0
BBX 7 8 0 -2
BITMAP
32
4A
8C
88
90
60
00
20
ENDCHAR
STARTCHAR uni1EE3
ENCODING 7907
SWIDTH 500 0
DWIDTH 5 0
BBX 6 6 0 -2
BITMAP
74
94
98
E0
00
20
ENDCHAR
STARTCHAR uni1EE4
ENCODING 7908
SWIDTH 815 0
DWIDTH 6 0
BBX 6 8 0 -2
BITMAP
EC
48
48
90
90
60
00
20
ENDCHAR
STARTCHAR uni1EE5
ENCODING 7909
SWIDTH 611 0
DWIDTH 5 0
BBX 4 6 0 -2
BITMAP
D0
50
B0
D0
00
20
ENDCHAR
STARTCHAR uni1EE8
ENCODING 7912
SWIDTH 815 0
DWIDTH 6 0
BBX 8 9 0 0
BITMAP
08
10
00
ED
49
4A
90
90
60
ENDCHAR
STARTCHAR uni1EE9
ENCODING 7913
SWIDTH 611 0
DWIDTH 5 0
BBX 6 7 0 0
BITMAP
10
20
00
D4
54
B8
D0
ENDCHAR
STARTCHAR uni1EEA
ENCODING 7914
SWIDTH 815 0
DWIDTH 6 0
BBX 8 9 0 0
BITMAP
10
08
00
ED
49
4A
90
90
60
ENDCHAR
STARTCHAR uni1EEB
ENCODING 7915
SWIDTH 611 0
DWIDTH 5 0
BBX 6 7 0 0
BITMAP
20
10
00
D4
54
B8
D0
ENDCHAR
STARTCHAR uni1EEE
ENCODING 7918
SWIDTH 815 0
DWIDTH 6 0
BBX 8 9 0 0
BITMAP
12
2C
00
ED
49
4A
90
90
60
ENDCHAR
STARTCHAR uni1EEF
ENCODING 7919
SWIDTH 611 0
DWIDTH 5 0
BBX 6 7 0 0
BITMAP
24
58
00
D4
54
B8
D0
ENDCHAR
STARTCHAR uni1EF0
ENCODING 7920
SWIDTH 815 0
DWIDTH 6 0
BBX 8 8 0 -2
BITMAP
ED
49
4A
90
90
60
00
20
ENDCHAR
STARTCHAR uni1EF1
ENCODING 7921
SWIDTH 611 0
DWIDTH 5 0
BBX 6 6 0 -2
BITMAP
D4
54
B8
D0
00
20
ENDCHAR
STARTCHAR Ygrave
ENCODING 7922
SWIDTH 685 0
DWIDTH 6 0
BBX 6 9 0 0
BITMAP
20
10
00
CC
48
30
20
20
60
ENDCHAR
STARTCHAR ygrave
ENCODING 7923
SWIDTH 500 0
DWIDTH 5 0
BBX 5 9 -1 -2
BITMAP
40
20
00
68
48
30
20
20
C0
ENDCHAR
STARTCHAR uni1EF4
ENCODING 7924
SWIDTH 685 0
DWIDTH 6 0
BBX 6 8 0 -2
BITMAP
CC
48
30
20
20
60
00
20
ENDCHAR
STARTCHAR uni1EF5
ENCODING 7925
SWIDTH 500 0
DWIDTH 5 0
BBX 5 8 -1 -4
BITMAP
68
48
30
20
20
C0
00
40
ENDCHAR
STARTCHAR uni1EF8
ENCODING 7928
SWIDTH 685 0
DWIDTH 6 0
BBX 6 9 0 0
BITMAP
24
58
00
CC
48
30
20
20
60
ENDCHAR
STARTCHAR uni1EF9
ENCODING 7929
SWIDTH 500 0
DWIDTH 5 0
BBX 5 9 -1 -2
BITMAP
48
B0
00
68
48
30
20
20
C0
ENDCHAR
STARTCHAR uni2000
ENCODING 8192
SWIDTH 500 0
DWIDTH 4 0
BBX 1 1 0 0
BITMAP
00
ENDCHAR
STARTCHAR uni2001
ENCODING 8193
SWIDTH 1000 0
DWIDTH 8 0
BBX 1 1 0 0
BITMAP
00
ENDCHAR
STARTCHAR uni2002
ENCODING 8194
SWIDTH 500 0
DWIDTH 4 0
BBX 1 1 0 0
BITMAP
00
ENDCHAR
STARTCHAR uni2003
ENCODING 8195
SWIDTH 1000 0
DWIDTH 8 0
BBX 1 1 0 0
BITMAP
00
ENDCHAR
STARTCHAR uni2004
ENCODING 8196
SWIDTH 333 0
DWIDTH 3 0
BBX 1 1 0 0
BITMAP
00
ENDCHAR
STARTCHAR uni2005
ENCODING 8197
SWIDTH 250 0
DWIDTH 2 0
BBX 1 1 0 0
BITMAP
00
ENDCHAR
STARTCHAR uni2006
ENCODING 8198
SWIDTH 167 0
DWIDTH 1 0
BBX 1 1 0 0
BITMAP
00
ENDCHAR
STARTCHAR uni2007
ENCODING 8199
SWIDTH 556 0
DWIDTH 4 0
BBX 1 1 0 0
BITMAP
00
ENDCHAR
STARTCHAR uni2008
ENCODING 8200
SWIDTH 278 0
DWIDTH 2 0
BBX 1 1 0 0
BITMAP
00
ENDCHAR
STARTCHAR uni2009
ENCODING 8201
SWIDTH 200 0
DWIDTH 2 0
BBX 1 1 0 0
BITMAP
00
ENDCHAR
STARTCHAR uni200A
ENCODING 8202
SWIDTH 100 0
DWIDTH 1 0
BBX 1 1 0 0
BITMAP
00
ENDCHAR
STARTCHAR uni200B
ENCODING 8203
SWIDTH 0 0
DWIDTH 0 0
BBX 1 1 0 0
BITMAP
00
ENDCHAR
STARTCHAR uni2010
ENCODING 8208
SWIDTH 333 0
DWIDTH 3 0
BBX 3 1 0 2
BITMAP
E0
ENDCHAR
STARTCHAR uni2011
ENCODING 8209
SWIDTH 333 0
DWIDTH 3 0
BBX 3 1 0 2
BITMAP
E0
ENDCHAR
STARTCHAR figuredash
ENCODING 8210
SWIDTH 500 0
DWIDTH 7 0
BBX 6 1 0 2
BITMAP
FC
ENDCHAR
STARTCHAR endash
ENCODING 8211
SWIDTH 500 0
DWIDTH 7 0
BBX 6 1 0 2
BITMAP
FC
ENDCHAR
STARTCHAR emdash
ENCODING 8212
SWIDTH 1000 0
DWIDTH 12 0
BBX 11 1 0 2
BITMAP
FFE0
ENDCHAR
STARTCHAR afii00208
ENCODING 8213
SWIDTH 1000 0
DWIDTH 12 0
BBX 11 1 0 2
BITMAP
FFE0
ENDCHAR
STARTCHAR quoteleft
ENCODING 8216
SWIDTH 204 0
DWIDTH 2 0
BBX 2 3 0 4
BITMAP
40
80
C0
ENDCHAR
STARTCHAR quoteright
ENCODING 8217
SWIDTH 204 0
DWIDTH 2 0
BBX 2 3 0 4
BITMAP
40
40
80
ENDCHAR
STARTCHAR quotesinglbase
ENCODING 8218
SWIDTH 204 0
DWIDTH 2 0
BBX 2 3 -1 -1
BITMAP
40
40
80
ENDCHAR
STARTCHAR quotereversed
ENCODING 8219
SWIDTH 204 0
DWIDTH 2 0
BBX 2 3 0 4
BITMAP
80
80
40
ENDCHAR
STARTCHAR quotedblleft
ENCODING 8220
SWIDTH 389 0
DWIDTH 5 0
BBX 4 3 0 5
BITMAP
50
A0
A0
ENDCHAR
STARTCHAR quotedblright
ENCODING 8221
SWIDTH 389 0
DWIDTH 5 0
BBX 4 3 0 5
BITMAP
50
50
A0
ENDCHAR
STARTCHAR quotedblbase
ENCODING 8222
SWIDTH 389 0
DWIDTH 4 0
BBX 4 3 -1 -1
BITMAP
50
50
A0
ENDCHAR
STARTCHAR uni201F
ENCODING 8223
SWIDTH 389 0
DWIDTH 5 0
BBX 4 3 0 5
BITMAP
A0
A0
50
ENDCHAR
STARTCHAR dagger
ENCODING 8224
SWIDTH 500 0
DWIDTH 5 0
BBX 4 9 0 -1
BITMAP
20
20
F0
40
40
40
80
80
80
ENDCHAR
STARTCHAR daggerdbl
ENCODING 8225
SWIDTH 500 0
DWIDTH 6 0
BBX 5 9 0 -1
BITMAP
10
10
78
20
20
20
F0
40
40
ENDCHAR
STARTCHAR bullet
ENCODING 8226
SWIDTH 606 0
DWIDTH 7 0
BBX 4 4 1 2
BITMAP
60
F0
F0
60
ENDCHAR
STARTCHAR ellipsis
ENCODING 8230
SWIDTH 1000 0
DWIDTH 9 0
BBX 7 2 0 0
BITMAP
92
92
ENDCHAR
STARTCHAR perthousand
ENCODING 8240
SWIDTH 1000 0
DWIDTH 13 0
BBX 12 8 0 0
BITMAP
6400
BC00
A800
C800
1330
1550
2550
2660
ENDCHAR
STARTCHAR guilsinglleft
ENCODING 8249
SWIDTH 333 0
DWIDTH 4 0
BBX 3 4 0 1
BITMAP
20
40
80
40
ENDCHAR
STARTCHAR guilsinglright
ENCODING 8250
SWIDTH 333 0
DWIDTH 4 0
BBX 3 4 0 1
BITMAP
40
20
40
80
ENDCHAR
STARTCHAR fraction
ENCODING 8260
SWIDTH 167 0
DWIDTH 1 0
BBX 4 8 -2 0
BITMAP
10
10
20
20
40
40
80
80
ENDCHAR
STARTCHAR oneinferior
ENCODING 8321
SWIDTH 333 0
DWIDTH 2 0
BBX 2 4 0 -2
BITMAP
40
40
80
80
ENDCHAR
STARTCHAR twoinferior
ENCODING 8322
SWIDTH 333 0
DWIDTH 2 0
BBX 3 4 0 -2
BITMAP
E0
20
40
E0
ENDCHAR
STARTCHAR threeinferior
ENCODING 8323
SWIDTH 333 0
DWIDTH 2 0
BBX 3 4 0 -2
BITMAP
E0
40
20
C0
ENDCHAR
STARTCHAR uni20A5
ENCODING 8357
SWIDTH 889 0
DWIDTH 7 0
BBX 6 7 0 -1
BITMAP
08
08
BC
74
A8
AC
20
ENDCHAR
STARTCHAR uni20A6
ENCODING 8358
SWIDTH 815 0
DWIDTH 7 0
BBX 7 6 0 0
BITMAP
66
3C
34
7C
48
E8
ENDCHAR
STARTCHAR uni20A9
ENCODING 8361
SWIDTH 926 0
DWIDTH 9 0
BBX 9 6 0 0
BITMAP
ED80
5F00
5A00
3E00
2400
2400
ENDCHAR
STARTCHAR Euro
ENCODING 8364
SWIDTH 722 0
DWIDTH 5 0
BBX 6 6 -1 0
BITMAP
1C
F4
40
F0
48
30
ENDCHAR
STARTCHAR uni20AD
ENCODING 8365
SWIDTH 741 0
DWIDTH 6 0
BBX 6 6 0 0
BITMAP
64
28
FC
60
50
D8
ENDCHAR
STARTCHAR uni2103
ENCODING 8451
SWIDTH 1102 0
DWIDTH 8 0
BBX 7 7 1 0
BITMAP
40
AE
D2
20
20
24
18
ENDCHAR
STARTCHAR uni2109
ENCODING 8457
SWIDTH 1047 0
DWIDTH 9 0
BBX 8 7 1 0
BITMAP
40
BF
C9
0C
10
10
38
ENDCHAR
STARTCHAR trademark
ENCODING 8482
SWIDTH 950 0
DWIDTH 13 0
BBX 12 5 0 3
BITMAP
FE30
AB60
2360
22A0
76B0
ENDCHAR
STARTCHAR uni212A
ENCODING 8490
SWIDTH 741 0
DWIDTH 6 0
BBX 6 6 0 0
BITMAP
64
28
30
60
50
D8
ENDCHAR
STARTCHAR uni212B
ENCODING 8491
SWIDTH 704 0
DWIDTH 6 0
BBX 6 8 -1 0
BITMAP
08
14
08
18
24
3C
44
EC
ENDCHAR
STARTCHAR uni2132
ENCODING 8498
SWIDTH 667 0
DWIDTH 6 0
BBX 6 6 0 0
BITMAP
1C
08
08
30
90
F8
ENDCHAR
STARTCHAR minus
ENCODING 8722
SWIDTH 606 0
DWIDTH 5 0
BBX 4 1 0 2
BITMAP
F0
ENDCHAR
STARTCHAR fraction
ENCODING 8725
SWIDTH 167 0
DWIDTH 1 0
BBX 4 8 -2 0
BITMAP
10
10
20
20
40
40
80
80
ENDCHAR
STARTCHAR periodcentered
ENCODING 8729
SWIDTH 278 0
DWIDTH 2 0
BBX 1 1 0 2
BITMAP
80
ENDCHAR
STARTCHAR uni2236
ENCODING 8758
SWIDTH 278 0
DWIDTH 2 0
BBX 2 4 0 0
BITMAP
40
00
00
80
ENDCHAR
STARTCHAR uni2259
ENCODING 8793
SWIDTH 606 0
DWIDTH 5 0
BBX 4 6 0 1
BITMAP
20
50
00
F0
00
F0
ENDCHAR
STARTCHAR uni225A
ENCODING 8794
SWIDTH 606 0
DWIDTH 5 0
BBX 4 6 0 1
BITMAP
50
20
00
F0
00
F0
ENDCHAR
STARTCHAR notequal
ENCODING 8800
SWIDTH 606 0
DWIDTH 5 0
BBX 4 7 0 -1
BITMAP
10
10
F0
20
F0
40
40
ENDCHAR
STARTCHAR equivalence
ENCODING 8801
SWIDTH 606 0
DWIDTH 5 0
BBX 4 5 0 0
BITMAP
F0
00
F0
00
F0
ENDCHAR
STARTCHAR uni2262
ENCODING 8802
SWIDTH 606 0
DWIDTH 5 0
BBX 4 7 0 -1
BITMAP
10
F0
20
F0
40
F0
40
ENDCHAR
STARTCHAR lessequal
ENCODING 8804
SWIDTH 606 0
DWIDTH 6 0
BBX 4 7 1 -2
BITMAP
10
60
80
40
20
00
F0
ENDCHAR
STARTCHAR greaterequal
ENCODING 8805
SWIDTH 606 0
DWIDTH 6 0
BBX 4 7 0 -2
BITMAP
40
20
10
60
80
00
F0
ENDCHAR
STARTCHAR uni226E
ENCODING 8814
SWIDTH 606 0
DWIDTH 6 0
BBX 4 7 1 -1
BITMAP
10
10
60
A0
40
60
40
ENDCHAR
STARTCHAR uni226F
ENCODING 8815
SWIDTH 606 0
DWIDTH 6 0
BBX 4 7 0 -1
BITMAP
10
50
20
30
60
C0
40
ENDCHAR
STARTCHAR uni2270
ENCODING 8816
SWIDTH 606 0
DWIDTH 6 0
BBX 4 7 1 -2
BITMAP
10
70
A0
60
60
40
F0
ENDCHAR
STARTCHAR uni2271
ENCODING 8817
SWIDTH 606 0
DWIDTH 6 0
BBX 4 7 0 -2
BITMAP
50
30
30
60
C0
40
F0
ENDCHAR
STARTCHAR fi
ENCODING -1
SWIDTH 611 0
DWIDTH 6 0
BBX 5 10 0 -2
BITMAP
18
28
20
F8
48
50
90
98
80
80
ENDCHAR
STARTCHAR fl
ENCODING -1
SWIDTH 611 0
DWIDTH 7 0
BBX 7 10 0 -2
BITMAP
1E
22
24
F4
44
48
88
8C
80
80
ENDCHAR
ENDFONT
